<?xml version="1.0" encoding="UTF-8"?> <svg xmlns="http://www.w3.org/2000/svg" width="520" height="179" viewBox="0 0 520 179" fill="none"><g clip-path="url(#clip0_744_1390)"><path d="M59.3162 69.6412C60.7131 69.6351 62.0873 69.9688 63.302 70.609C64.5166 71.2492 65.5293 72.1735 66.2393 73.29C66.8646 74.3682 67.2304 75.5595 67.3116 76.7816V77.0435C67.2535 78.273 66.863 79.4692 66.1758 80.5218C65.4887 81.5743 64.5271 82.4495 63.3798 83.0666C62.1599 83.7632 60.748 84.115 59.3162 84.0792V69.6412ZM59.3162 56.5649V42.1094C60.6861 42.111 62.0311 42.4495 63.2142 43.0905C64.3973 43.7315 65.3762 44.6519 66.0511 45.7582C67.0937 47.3372 67.4178 49.2358 66.9521 51.0364C66.4864 52.8371 65.2691 54.3924 63.5679 55.3603L63.2104 55.5523C62.0397 56.2498 60.6692 56.6027 59.2786 56.5649H59.3162ZM59.3162 29.1554V14.665C60.6832 14.6992 62.0183 15.0552 63.1964 15.6996C64.3745 16.3439 65.3568 17.2555 66.0511 18.3487C67.0753 20.0195 67.3514 21.9968 66.8201 23.8547C66.2888 25.7127 64.9925 27.3027 63.2104 28.2825C62.0124 28.8732 60.6728 29.1735 59.3162 29.1554ZM56.8894 70.0078C57.6716 69.7645 58.4912 69.6407 59.3162 69.6412V84.0966C57.9834 84.0861 56.6755 83.7599 55.5166 83.1488C54.3577 82.5378 53.3862 81.6621 52.6942 80.605C52.3159 79.829 51.9954 79.0299 51.7347 78.2132C50.7517 75.5773 48.9028 73.2938 46.4484 71.6838V67.7557C46.8623 68.0001 47.1256 68.262 47.5395 68.5064C48.8941 69.3791 50.4382 69.9657 52.0633 70.2251C53.6884 70.4845 55.355 70.4103 56.9458 70.0078H56.8894ZM59.3162 14.665V29.1554C57.5913 29.1867 55.9046 28.6817 54.5245 27.7208C53.1445 26.7599 52.1504 25.3983 51.7005 23.8526C51.2506 22.3069 51.3707 20.666 52.0416 19.1909C52.7126 17.7159 53.8959 16.4914 55.4032 15.7125C56.5919 15.0636 57.9377 14.7033 59.3162 14.665ZM59.3162 42.0745V56.5649C57.9565 56.586 56.6172 56.256 55.4478 55.6116C54.2785 54.9673 53.3251 54.0341 52.6942 52.9161C52.2013 52.2393 51.8739 51.4706 51.7347 50.664C50.6218 48.0893 48.7987 45.8315 46.4484 44.1171V40.2239C46.7365 40.4723 47.0592 40.6836 47.4078 40.8524C48.7555 41.7392 50.2939 42.3449 51.9175 42.6282C53.5411 42.9114 55.2115 42.8655 56.8141 42.4935C57.6213 42.2445 58.4657 42.1149 59.3162 42.1094V42.0745ZM46.4484 71.6489C46.2145 71.4355 45.9403 71.2638 45.6394 71.1426C43.1138 69.6406 40.0604 69.1026 37.1173 69.6412C36.2021 70.0023 35.2413 70.2545 34.2578 70.3919H34.0697C32.0872 70.5269 30.1246 69.9499 28.5876 68.7802C27.0505 67.6105 26.0565 65.9375 25.8109 64.1069C24.7897 61.8017 23.1593 59.7723 21.0701 58.206V54.2953C21.2726 54.4557 21.5012 54.5854 21.7474 54.6794C23.0761 55.5335 24.5824 56.1206 26.1698 56.4032C27.7572 56.6858 29.3906 56.6576 30.9656 56.3205L32.8469 55.9364H32.9974C34.4756 55.8259 35.9582 56.0928 37.2846 56.7083C38.6111 57.3237 39.7308 58.2643 40.5224 59.4281C40.6541 59.7947 40.9175 60.1788 41.0492 60.5454C41.1257 60.8067 41.22 61.0633 41.3314 61.3136C42.327 63.8716 44.1135 66.1003 46.4672 67.7208V71.6489H46.4484ZM46.4484 40.2239V44.1171C46.184 43.8798 45.8611 43.706 45.5078 43.6108C42.9306 42.0984 39.8265 41.561 36.8351 42.1094C35.4787 42.6942 33.9687 42.9013 32.4879 42.7056C31.0073 42.51 29.6195 41.9201 28.4928 41.0073C27.3661 40.0945 26.5489 38.898 26.1401 37.5629C25.7314 36.2278 25.7486 34.8113 26.1899 33.4851C26.6311 32.1589 27.4773 30.98 28.626 30.0911C29.7746 29.2022 31.1765 28.6416 32.6616 28.4771C34.1466 28.3126 35.6513 28.5514 36.9931 29.1645C38.3349 29.7776 39.4563 30.7386 40.2214 31.9312C40.3298 32.1563 40.4689 32.3675 40.6353 32.5597C40.8903 32.9481 41.0747 33.3728 41.1808 33.8167C42.2688 36.3612 44.0914 38.5781 46.4484 40.2239ZM21.1266 85.0918V81.1986C21.39 81.4604 21.8038 81.7049 22.0672 81.9493C23.4203 82.8249 24.9637 83.4147 26.5888 83.6771C28.2139 83.9395 29.8813 83.8682 31.4735 83.4682C33.2059 82.9126 35.0927 82.9346 36.8094 83.5304C38.5262 84.1263 39.9655 85.2587 40.8798 86.7329C41.9026 88.3841 42.1779 90.3443 41.6453 92.1837C41.1128 94.023 39.8159 95.5912 38.0391 96.5444C36.2545 97.5054 34.1355 97.7804 32.1352 97.3106C30.1349 96.8408 28.412 95.6636 27.3348 94.0304C26.9545 93.2571 26.64 92.4574 26.3941 91.6386C25.3233 89.0469 23.5001 86.7809 21.1266 85.0918ZM21.1266 58.206C20.7488 57.8755 20.3396 57.5775 19.9038 57.3156C17.2796 55.9187 14.2068 55.43 11.2311 55.9364C10.3417 56.327 9.37414 56.5411 8.39044 56.5649V42.2316C9.65741 42.2948 10.8882 42.6464 11.9741 43.2553C13.0601 43.8643 13.9679 44.7118 14.6174 45.7233C14.7679 45.9677 14.7679 46.2296 14.8996 46.3518C15.2064 46.7288 15.4359 47.1549 15.5769 47.6088C16.6641 50.2933 18.5982 52.6114 21.1266 54.2604V58.206ZM21.1266 81.1986V85.0918C20.7972 84.9566 20.4823 84.7929 20.186 84.6029C17.6042 83.0851 14.4944 82.5416 11.4945 83.0841C10.5417 83.5823 9.46525 83.841 8.37162 83.8348V69.3793C9.69934 69.4319 10.9915 69.7937 12.129 70.4313C13.2665 71.0689 14.2128 71.962 14.8808 73.0281C15.0491 73.2003 15.1429 73.4241 15.1442 73.6566C15.4799 73.9686 15.7145 74.3618 15.8214 74.7914C16.8658 77.3633 18.7047 79.5921 21.1078 81.1986H21.1266ZM8.39044 111.489V97.0333C9.77663 97.0415 11.1371 97.3817 12.34 98.0209C13.543 98.6601 14.5478 99.5768 15.257 100.682C15.9887 101.781 16.3832 103.044 16.3977 104.335C16.4122 105.626 16.0463 106.897 15.3395 108.009C14.6326 109.122 13.6117 110.034 12.387 110.647C11.1623 111.26 9.7804 111.551 8.39044 111.489ZM8.39044 56.5649C6.93985 56.6833 5.48277 56.4183 4.18773 55.8004C2.89268 55.1825 1.81257 54.237 1.07232 53.0732C0.463718 51.9888 0.0988995 50.8009 0 49.5816V49.407C0.0527772 48.1371 0.442732 46.8989 1.13522 45.8024C1.8277 44.706 2.80128 43.7853 3.96947 43.122C5.31455 42.3897 6.87746 42.0776 8.42806 42.2316V56.5649H8.39044ZM8.39044 69.3793V83.8348C6.65695 83.8967 4.95102 83.4184 3.54442 82.4761C2.13782 81.5339 1.11148 80.1819 0.628901 78.6356C0.146325 77.0892 0.235278 75.4375 0.881591 73.9435C1.5279 72.4496 2.69439 71.1993 4.19522 70.3919C5.47083 69.7121 6.9196 69.3625 8.39044 69.3793ZM8.39044 97.0333V111.489C7.03314 111.497 5.69652 111.18 4.51 110.568C3.32349 109.957 2.32729 109.071 1.61789 107.997C0.627437 106.319 0.369955 104.352 0.898721 102.503C1.42749 100.654 2.70203 99.0646 4.4586 98.0633C5.65557 97.4198 7.00755 97.0656 8.39044 97.0333Z" fill="#A9DADE"></path><path d="M142.223 61.977V62.2214C142.173 63.4713 141.787 64.6897 141.1 65.766C140.414 66.8422 139.448 67.7422 138.291 68.3842C137.044 69.0181 135.649 69.3597 134.228 69.3793V54.9238C135.609 54.887 136.975 55.1908 138.188 55.8042C139.401 56.4176 140.417 57.3187 141.132 58.4155C141.738 59.5022 142.108 60.6884 142.223 61.9072V61.977ZM134.228 41.7254V27.2699C135.597 27.2962 136.937 27.6449 138.122 28.2831C139.306 28.9213 140.297 29.8281 141 30.9187C142.039 32.5864 142.324 34.5682 141.792 36.4302C141.259 38.2921 139.953 39.8823 138.16 40.8525C136.977 41.5113 135.604 41.8161 134.228 41.7254ZM134.228 14.4555V1.61985e-05C135.946 -0.0198978 137.623 0.490708 138.994 1.45156C140.366 2.41242 141.355 3.76903 141.805 5.30811C142.255 6.8472 142.141 8.48147 141.481 9.95401C140.822 11.4265 139.653 12.6538 138.16 13.4429C136.964 14.0867 135.61 14.4353 134.228 14.4555ZM106.329 68.7857C107.724 68.3404 109.226 68.272 110.662 68.5884C112.097 68.9047 113.406 69.5929 114.436 70.5728C115.467 71.5527 116.176 72.784 116.482 74.1234C116.787 75.4628 116.676 76.8552 116.162 78.1385C115.649 79.4218 114.752 80.5432 113.578 81.3723C112.404 82.2014 111.001 82.7039 109.531 82.8215C108.061 82.9391 106.585 82.6668 105.276 82.0365C103.966 81.4061 102.877 80.4435 102.133 79.2607C101.739 78.491 101.418 77.6907 101.174 76.8689C99.9657 74.0142 97.8369 71.5754 95.0788 69.8856C93.8063 69.1286 92.383 68.6164 90.8932 68.3795C89.4034 68.1426 87.8776 68.1857 86.4061 68.5064C85.427 68.906 84.3716 69.1197 83.302 69.1349V54.5572C84.6277 54.6079 85.918 54.969 87.0529 55.607C88.1877 56.245 89.1301 57.1391 89.7924 58.206C89.9429 58.4504 90.0746 58.5726 90.2063 58.8345C90.4187 59.2415 90.601 59.6615 90.7518 60.0915C91.9774 62.973 94.158 65.4184 96.9788 67.0748C98.338 67.9392 99.877 68.5302 101.497 68.8098C103.117 69.0894 104.782 69.0515 106.385 68.6984L106.329 68.7857ZM134.228 1.61985e-05V14.4555C132.856 14.4391 131.512 14.0946 130.326 13.4555C129.139 12.8163 128.151 11.904 127.455 10.8067C126.433 9.15814 126.159 7.20053 126.691 5.36404C127.224 3.52756 128.521 1.96244 130.296 1.0126C131.467 0.315163 132.837 -0.0377819 134.228 1.61985e-05ZM134.228 27.2699C133.348 27.3323 132.482 27.5026 131.651 27.7762C130.046 28.1154 128.384 28.1464 126.766 27.8671C125.149 27.5879 123.61 27.0044 122.244 26.1526C119.403 24.4626 117.256 21.9355 116.149 18.9772C115.886 18.6106 115.754 18.2265 115.472 17.8424C115.363 17.6214 115.23 17.4109 115.077 17.2139C114.048 15.5941 112.372 14.4171 110.413 13.9397C108.453 13.4622 106.37 13.7229 104.617 14.665C102.917 15.6162 101.671 17.1327 101.133 18.906C100.595 20.6793 100.805 22.5763 101.72 24.211C102.636 25.8457 104.188 27.0953 106.061 27.7057C107.934 28.3161 109.987 28.2414 111.803 27.4968C113.275 27.1762 114.8 27.133 116.29 27.3699C117.78 27.6068 119.203 28.119 120.476 28.8761C123.266 30.5647 125.437 33 126.703 35.8594C126.834 36.7086 127.154 37.5231 127.643 38.2512C128.314 39.3298 129.284 40.2224 130.451 40.8363C131.619 41.4503 132.942 41.7632 134.284 41.7428L134.228 27.2699ZM134.228 54.9238C133.397 54.9379 132.572 55.0674 131.782 55.3079C130.177 55.6531 128.513 55.6854 126.894 55.403C125.274 55.1205 123.736 54.5293 122.376 53.6668C119.537 52.0254 117.346 49.5757 116.13 46.6835C116.127 46.3761 116.036 46.075 115.867 45.8106C115.659 45.4858 115.476 45.1473 115.321 44.798C114.557 43.61 113.442 42.6498 112.109 42.0311C110.775 41.4123 109.279 41.1608 107.796 41.3064C107.148 41.3066 106.508 41.4314 105.915 41.673C104.344 42.0134 102.714 42.0447 101.13 41.7651C99.5455 41.4855 98.0417 40.901 96.7155 40.0494C93.8675 38.3094 91.6925 35.7711 90.5073 32.8042C90.3599 32.39 90.1302 32.0051 89.83 31.6694C89.8287 31.4369 89.7349 31.2131 89.5666 31.0409C88.9153 30.0192 88.0104 29.1567 86.9273 28.5251C85.8442 27.8935 84.6142 27.511 83.3397 27.4096V41.865C84.3102 41.7613 85.2638 41.5503 86.1804 41.2365C87.6518 40.9159 89.1777 40.8727 90.6675 41.1096C92.1572 41.3465 93.5806 41.8587 94.853 42.6157C97.5189 44.2234 99.5979 46.5423 100.817 49.2674C100.933 50.2454 101.266 51.1906 101.795 52.0432C102.508 53.2015 103.564 54.1458 104.838 54.7646C106.111 55.3834 107.549 55.6507 108.981 55.5349H109.113C110.097 55.511 111.064 55.297 111.954 54.9064C114.889 54.3863 117.928 54.8832 120.495 56.303C123.264 58.0126 125.43 60.4415 126.722 63.2864C126.856 64.1177 127.129 64.9246 127.531 65.6782C128.237 66.7379 129.211 67.6223 130.368 68.2549C131.525 68.8876 132.83 69.2495 134.171 69.3095V54.9238H134.228ZM83.302 151.59V137.257C84.5236 137.357 85.7018 137.726 86.739 138.334C87.7761 138.941 88.6423 139.769 89.2656 140.749C90.2427 142.411 90.4907 144.359 89.958 146.187C89.4253 148.015 88.1529 149.582 86.4061 150.56C85.4488 151.072 84.3954 151.41 83.302 151.556V151.59ZM83.302 124.059V109.603C84.4915 109.802 85.623 110.229 86.6241 110.858C87.6251 111.486 88.4736 112.302 89.1152 113.252C89.6148 114.101 89.929 115.033 90.0396 115.995C90.1502 116.957 90.0551 117.93 89.7597 118.858C89.4644 119.785 88.9745 120.65 88.3183 121.402C87.6621 122.153 86.8525 122.778 85.9358 123.238C85.118 123.656 84.2259 123.934 83.302 124.059ZM83.302 96.7889C84.6844 96.7687 86.038 96.4201 87.2339 95.7763C89.0228 94.8251 90.3324 93.2545 90.8755 91.4087C91.4186 89.563 91.1509 87.5927 90.131 85.9298C89.4216 84.8559 88.4254 83.9702 87.2389 83.3585C86.0524 82.7468 84.7158 82.4298 83.3585 82.4381L83.302 96.7889ZM83.302 69.0127C81.8962 69.0749 80.4984 68.7832 79.2565 68.1685C78.0146 67.5539 76.9749 66.6391 76.2473 65.521C75.2491 63.8431 74.9893 61.8717 75.5223 60.02C76.0553 58.1682 77.3399 56.5797 79.1068 55.5873C80.405 54.9626 81.8401 54.6222 83.302 54.5921V69.0127ZM83.302 27.4096V41.865C81.8397 41.9335 80.3851 41.6298 79.0953 40.9867C77.8055 40.3436 76.7296 39.3856 75.9839 38.2162C75.3005 37.0762 74.9598 35.7868 74.9973 34.4827C75.0348 33.1786 75.4492 31.9079 76.1972 30.8033C76.9452 29.6988 77.9992 28.8011 79.2491 28.204C80.499 27.607 81.8987 27.3326 83.302 27.4096ZM83.302 82.3334V96.719C81.9572 96.7545 80.6275 96.448 79.457 95.8325C78.2864 95.2171 77.3196 94.3162 76.6612 93.2274C75.6232 91.5947 75.3255 89.6466 75.8333 87.8105C76.3412 85.9743 77.6132 84.4001 79.3702 83.4333C80.541 82.7358 81.9114 82.3829 83.302 82.4207V82.3334ZM83.302 109.603C82.1132 109.486 80.911 109.617 79.7841 109.987C78.1824 110.37 76.5097 110.421 74.8842 110.138C73.2588 109.854 71.7203 109.243 70.3778 108.346C67.5569 106.69 65.3763 104.244 64.1508 101.363C64.0019 100.912 63.773 100.487 63.4735 100.106C63.4191 99.883 63.3236 99.6703 63.1913 99.4774C62.1344 97.8401 60.441 96.6413 58.46 96.1281C56.479 95.6149 54.3613 95.8264 52.5434 96.719C50.7687 97.7051 49.4788 99.295 48.9482 101.15C48.4177 103.006 48.6884 104.98 49.7027 106.653C50.6982 108.228 52.2951 109.398 54.1768 109.932C56.0584 110.465 58.0874 110.323 59.8615 109.533C62.8553 109.01 65.9519 109.552 68.5341 111.052C71.3549 112.677 73.5025 115.138 74.6294 118.036C74.8305 118.828 75.147 119.592 75.57 120.305C76.3464 121.536 77.4886 122.533 78.8599 123.177C80.2312 123.821 81.7735 124.085 83.302 123.937V109.603ZM83.302 137.257V151.59C81.8204 151.727 80.3273 151.472 78.9956 150.854C77.6638 150.236 76.5479 149.281 75.777 148.099C75.336 147.348 75.0129 146.543 74.8175 145.707C73.6497 142.831 71.5118 140.381 68.7222 138.724C66.147 137.207 63.0434 136.663 60.0496 137.205C59.1981 137.594 58.2824 137.847 57.3406 137.956H57.2089C55.7456 138.044 54.2848 137.75 52.9917 137.109C51.6985 136.467 50.6244 135.503 49.8908 134.324C49.4019 133.502 49.0829 132.602 48.9502 131.671C47.7078 128.926 45.6368 126.574 42.9866 124.897C40.3009 123.429 37.1351 122.908 34.0694 123.43C33.2295 123.828 32.3031 124.043 31.3604 124.059V109.743C32.6124 109.796 33.829 110.145 34.8955 110.756C35.962 111.367 36.8431 112.22 37.4557 113.235C37.557 113.463 37.6967 113.675 37.8695 113.863C38.1329 114.247 38.2646 114.614 38.5468 115.12C39.6733 118.055 41.8781 120.527 44.7738 122.103C46.075 122.955 47.5556 123.541 49.1184 123.824C50.6812 124.107 52.2908 124.08 53.8415 123.744L55.8732 123.36H56.0237C57.4704 123.252 58.921 123.521 60.2111 124.138C61.5012 124.755 62.5792 125.695 63.323 126.852C63.5692 127.201 63.7534 127.584 63.8686 127.987L64.2825 128.738C65.4417 131.7 67.6331 134.219 70.5094 135.895C71.8767 136.743 73.4197 137.316 75.0396 137.578C76.6595 137.839 78.3204 137.784 79.9158 137.414C81.0073 137.084 82.1667 136.995 83.302 137.152V137.257ZM31.4168 179V164.545C33.4824 164.545 35.4634 165.306 36.9241 166.661C38.3847 168.017 39.2052 169.855 39.2052 171.772C39.2052 173.689 38.3847 175.528 36.9241 176.883C35.4634 178.239 33.4824 179 31.4168 179ZM31.4168 151.346C32.4678 151.346 33.5 151.087 34.408 150.595C37.4418 150.057 40.5828 150.593 43.2123 152.097C45.9885 153.768 48.1224 156.213 49.3076 159.08C49.4966 159.915 49.8133 160.72 50.2482 161.472C50.9913 162.655 52.081 163.617 53.3906 164.248C54.7002 164.878 56.1758 165.15 57.6456 165.033C59.1154 164.915 60.5191 164.413 61.6931 163.583C62.8671 162.754 63.7633 161.633 64.2772 160.35C64.7912 159.066 64.9018 157.674 64.5963 156.335C64.2907 154.995 63.5815 153.764 62.5512 152.784C61.5209 151.804 60.2119 151.116 58.7765 150.8C57.3412 150.483 55.8385 150.552 54.4435 150.997C52.8526 151.399 51.186 151.474 49.5609 151.214C47.9358 150.955 46.3917 150.368 45.0371 149.495C42.1643 147.808 39.9746 145.285 38.8102 142.32C38.6692 141.866 38.4397 141.44 38.1329 141.063C38.0012 140.941 38.0012 140.697 37.8695 140.574C37.207 139.511 36.2709 138.616 35.1449 137.97C34.0189 137.324 32.7381 136.948 31.4168 136.873V151.346ZM31.4168 109.743V124.059C29.9634 124.199 28.4974 123.943 27.1979 123.323C25.8984 122.703 24.8215 121.746 24.0987 120.567C23.4373 119.503 23.069 118.303 23.0264 117.075V116.953C23.0491 115.684 23.4225 114.441 24.1109 113.343C24.7993 112.246 25.7797 111.331 26.9582 110.686C28.3083 109.966 29.8686 109.661 31.4168 109.813V109.743ZM31.4168 136.891V151.346C30.394 151.346 29.3812 151.159 28.4363 150.796C27.4914 150.433 26.6328 149.9 25.9095 149.229C25.1863 148.558 24.6126 147.761 24.2212 146.884C23.8298 146.007 23.6284 145.067 23.6284 144.118C23.6284 143.169 23.8298 142.229 24.2212 141.352C24.6126 140.475 25.1863 139.679 25.9095 139.008C26.6328 138.336 27.4914 137.804 28.4363 137.441C29.3812 137.078 30.394 136.891 31.4168 136.891ZM31.4168 164.545V179C29.6923 179.027 28.0073 178.52 26.6286 177.558C25.2499 176.596 24.2563 175.235 23.8051 173.69C23.3538 172.145 23.4707 170.505 24.1372 169.029C24.8037 167.552 25.9818 166.325 27.485 165.54C28.6857 164.909 30.0373 164.567 31.4168 164.545Z" fill="#008296"></path><path d="M155.9 123.064C157.584 123.126 159.199 123.695 160.503 124.686C161.807 125.676 162.727 127.034 163.124 128.553C163.522 130.073 163.375 131.671 162.707 133.106C162.038 134.541 160.883 135.735 159.418 136.506C158.342 137.085 157.14 137.431 155.9 137.519V123.064ZM164.29 75.2977V75.5421C164.226 76.7868 163.836 77.9983 163.154 79.0719C162.472 80.1456 161.519 81.0492 160.377 81.7049C158.997 82.3658 157.45 82.6674 155.9 82.5778V68.1223C157.367 68.0254 158.833 68.3169 160.129 68.9628C161.424 69.6087 162.495 70.5825 163.218 71.7711C163.835 72.8524 164.201 74.042 164.29 75.2627V75.2977ZM155.9 109.865V95.5318C157.188 95.5829 158.442 95.9283 159.551 96.5375C160.661 97.1466 161.591 98.0006 162.259 99.0235C163.248 100.699 163.505 102.663 162.976 104.509C162.447 106.355 161.173 107.942 159.418 108.94C158.339 109.499 157.134 109.816 155.9 109.865ZM153.059 123.43C153.951 123.066 154.935 122.939 155.9 123.064V137.519C154.481 137.536 153.081 137.208 151.84 136.568C150.6 135.928 149.561 134.998 148.826 133.87C148.305 133.156 147.976 132.336 147.867 131.479C146.797 128.853 144.911 126.58 142.449 124.949V121.056L143.672 121.807C145.031 122.671 146.57 123.262 148.19 123.542C149.81 123.821 151.475 123.783 153.078 123.43H153.059ZM155.9 68.1223V82.5778C154.634 82.5101 153.405 82.1567 152.32 81.5482C151.235 80.9397 150.326 80.0945 149.673 79.0861C148.649 77.4052 148.381 75.4175 148.927 73.5544C149.473 71.6913 150.789 70.1032 152.589 69.1349C153.626 68.5751 154.781 68.2297 155.975 68.1223H155.9ZM155.9 95.5318V109.865C154.468 109.981 153.03 109.714 151.756 109.095C150.483 108.476 149.427 107.532 148.714 106.373C148.279 105.622 147.962 104.817 147.773 103.982C146.779 101.384 144.93 99.1422 142.487 97.5745V93.6463C142.878 93.8118 143.244 94.023 143.578 94.2748C144.938 95.1373 146.476 95.7285 148.095 96.011C149.715 96.2934 151.379 96.2611 152.984 95.9159C153.901 95.5457 154.909 95.4129 155.9 95.5318ZM142.487 124.949C142.296 124.744 142.066 124.572 141.809 124.443C139.185 123.046 136.112 122.557 133.137 123.064C132.297 123.461 131.37 123.676 130.428 123.692H130.164C128.732 123.808 127.294 123.541 126.021 122.922C124.747 122.303 123.691 121.359 122.978 120.2C122.471 119.348 122.152 118.41 122.037 117.442C120.92 115.151 119.253 113.126 117.165 111.524V107.596C117.44 107.698 117.676 107.874 117.842 108.102C119.184 108.924 120.687 109.492 122.265 109.774C123.844 110.055 125.467 110.045 127.041 109.743C127.685 109.494 128.376 109.363 129.073 109.359C130.56 109.179 132.07 109.415 133.411 110.038C134.751 110.66 135.861 111.639 136.598 112.85C136.81 113.167 136.992 113.5 137.144 113.846C137.312 114.129 137.451 114.428 137.558 114.736C138.542 117.233 140.279 119.415 142.562 121.021V124.914L142.487 124.949ZM142.487 93.6463V97.5396C142.248 97.2976 141.976 97.0862 141.678 96.9111C140.402 96.1612 138.979 95.6533 137.49 95.4166C136.001 95.1798 134.477 95.219 133.005 95.5318C131.224 96.2917 129.204 96.4162 127.33 95.8816C125.456 95.3471 123.86 94.1909 122.846 92.6338C121.835 90.9688 121.566 89.0026 122.097 87.1558C122.628 85.3091 123.916 83.7285 125.687 82.7524C126.569 82.2705 127.544 81.9546 128.558 81.8228C129.571 81.691 130.603 81.7458 131.593 81.9841C132.584 82.2225 133.514 82.6397 134.331 83.2118C135.148 83.784 135.835 84.4999 136.354 85.3187C136.527 85.4892 136.628 85.7128 136.636 85.9472C136.909 86.2996 137.136 86.6804 137.313 87.082C138.333 89.6616 140.112 91.9238 142.449 93.6114L142.487 93.6463ZM117.165 138.514V134.621C117.56 134.883 117.842 135.005 118.237 135.249C119.597 136.112 121.136 136.703 122.755 136.986C124.374 137.268 126.039 137.236 127.643 136.891C129.334 136.336 131.18 136.346 132.863 136.92C134.546 137.493 135.96 138.595 136.862 140.033C137.418 140.855 137.791 141.772 137.958 142.73C138.125 143.689 138.083 144.668 137.834 145.611C137.585 146.554 137.135 147.441 136.509 148.219C135.884 148.997 135.097 149.65 134.194 150.141C133.291 150.631 132.292 150.948 131.254 151.073C130.217 151.197 129.163 151.127 128.156 150.867C127.148 150.606 126.207 150.161 125.389 149.556C124.571 148.952 123.891 148.201 123.392 147.348C122.884 146.635 122.562 145.822 122.451 144.974C121.416 142.383 119.577 140.135 117.165 138.514ZM117.165 111.489C116.774 111.274 116.408 111.023 116.074 110.738C113.448 109.222 110.285 108.726 107.269 109.359C106.41 109.707 105.495 109.919 104.56 109.987V95.5318C105.814 95.6524 107.019 96.0457 108.078 96.6797C109.137 97.3137 110.02 98.1705 110.656 99.1806C110.829 99.3685 110.968 99.5807 111.07 99.8091C111.314 100.176 111.54 100.56 111.747 100.944C112.746 103.639 114.644 105.968 117.165 107.596V111.489ZM117.165 134.621V138.514C116.883 138.27 116.619 138.148 116.356 137.886C113.734 136.362 110.567 135.866 107.552 136.506C106.609 136.898 105.592 137.112 104.56 137.135V122.68C105.879 122.735 107.16 123.107 108.277 123.759C109.395 124.41 110.312 125.32 110.938 126.398C111.07 126.643 111.201 126.782 111.333 127.027C111.596 127.427 111.822 127.848 112.01 128.284C113.042 130.828 114.829 133.049 117.165 134.691V134.621ZM104.56 164.911V150.456C105.918 150.447 107.254 150.764 108.441 151.376C109.627 151.988 110.623 152.873 111.333 153.947C112.323 155.625 112.581 157.592 112.052 159.441C111.523 161.29 110.249 162.88 108.492 163.881C107.295 164.525 105.943 164.879 104.56 164.911ZM104.56 109.987C103.094 110.082 101.628 109.79 100.333 109.144C99.0383 108.498 97.9666 107.526 97.2422 106.339C96.5428 105.289 96.1715 104.081 96.1699 102.847V102.707C96.2015 101.736 96.4394 100.78 96.87 99.8937C97.3006 99.0077 97.9154 98.2094 98.6792 97.5444C99.443 96.8794 100.341 96.3609 101.321 96.0185C102.301 95.6761 103.344 95.5167 104.391 95.5493H104.56V109.987ZM104.56 122.68V137.135C103.154 137.213 101.753 136.929 100.51 136.312C99.2685 135.696 98.2348 134.772 97.5244 133.643C97.01 132.809 96.6778 131.889 96.5469 130.935C96.4159 129.981 96.4888 129.013 96.7614 128.086C97.034 127.158 97.5008 126.29 98.1353 125.53C98.7698 124.77 99.5595 124.134 100.459 123.657C101.705 122.992 103.124 122.66 104.56 122.697V122.68ZM104.56 150.456V164.911C103.191 164.893 101.85 164.55 100.664 163.914C99.4787 163.279 98.4884 162.372 97.7878 161.28C97.2737 160.481 96.9345 159.596 96.7895 158.676C96.6446 157.755 96.6969 156.817 96.9433 155.916C97.1897 155.014 97.6254 154.166 98.2255 153.421C98.8256 152.676 99.5783 152.048 100.44 151.573L100.629 151.468C101.799 150.771 103.17 150.418 104.56 150.456Z" fill="#A9DADE"></path><path d="M456.056 64.8576V61.8024C457.166 61.8672 458.269 61.5958 459.198 61.0291C460.128 60.4624 460.834 59.631 461.211 58.6599C462.224 55.5672 462.681 52.3408 462.565 49.1102C462.681 45.9197 462.223 42.7336 461.211 39.6827C460.836 38.7014 460.135 37.8561 459.208 37.2692C458.281 36.6823 457.177 36.3842 456.056 36.418V33.5549C457.676 33.4752 459.287 33.8232 460.702 34.5587C462.117 35.2941 463.278 36.3868 464.051 37.7099C466.012 41.2379 466.945 45.1796 466.761 49.1451C466.941 53.1415 466.056 57.1173 464.183 60.72C463.381 62.0455 462.194 63.1358 460.757 63.8672C459.321 64.5985 457.692 64.9416 456.056 64.8576ZM456.056 33.5549V36.4529C454.953 36.4187 453.868 36.7188 452.965 37.3079C452.062 37.8969 451.391 38.7428 451.052 39.7176C449.984 42.7571 449.525 45.9523 449.697 49.1451C449.529 52.3694 449.942 55.5971 450.92 58.6948C451.274 59.6762 451.973 60.5192 452.904 61.0889C453.835 61.6585 454.945 61.9221 456.056 61.8373V64.8576C454.424 64.9342 452.801 64.5878 451.369 63.857C449.937 63.1263 448.752 62.0401 447.948 60.72C446.086 57.1139 445.202 53.1406 445.371 49.1451C445.202 45.1946 446.087 41.2666 447.948 37.7099C448.753 36.3852 449.94 35.2948 451.375 34.5609C452.811 33.827 454.438 33.4787 456.075 33.5549H456.056ZM335.241 55.3079V52.1654H339.173L336.314 42.4935C336.05 41.6031 335.919 40.7477 335.636 39.9795C335.543 39.4252 335.411 38.8771 335.241 38.3384V34.1834H336.728C337.141 34.1834 337.273 34.323 337.405 34.6897L346.811 63.234L347.075 63.9847C347.075 64.1069 346.943 64.2291 346.397 64.2291H343.557C343.011 64.2291 342.748 64.1069 342.748 63.7228L340.039 55.3079H335.241ZM375.068 63.7228C375.068 64.1069 374.917 64.2291 374.522 64.2291H371.813C371.399 64.2291 371.136 64.1069 371.136 63.7228L370.459 41.027V38.3384C370.413 39.4126 370.185 40.4733 369.781 41.4809L364.138 56.6871C364.107 56.8319 364.022 56.9619 363.898 57.0545C363.774 57.147 363.619 57.1962 363.46 57.1934H361.974C361.816 57.1929 361.663 57.1425 361.54 57.0505C361.417 56.9585 361.331 56.8303 361.297 56.6871L355.766 41.4809C355.363 40.4733 355.134 39.4126 355.089 38.3384V41.0969L354.411 63.7926C354.411 64.1767 354.28 64.2989 353.866 64.2989H351.025C350.958 64.3037 350.891 64.2962 350.828 64.2768C350.764 64.2574 350.705 64.2265 350.655 64.186C350.604 64.1454 350.562 64.096 350.532 64.0404C350.502 63.9849 350.484 63.9244 350.48 63.8625L352.361 34.8293C352.361 34.4627 352.493 34.323 352.906 34.323H355.879C356.161 34.323 356.293 34.4627 356.424 34.8293L362.068 49.9133C362.065 50.129 362.109 50.3431 362.2 50.5418C362.388 51.2005 362.52 51.8717 362.595 52.5495C362.745 52.1829 362.877 51.6766 363.141 51.0481C363.404 50.4196 363.272 50.0355 363.423 49.9133L369.067 34.8293C369.198 34.4627 369.33 34.323 369.612 34.323H372.697C373.111 34.323 373.243 34.4627 373.243 34.8293L375.124 63.8625L375.068 63.7228ZM397.417 63.5482C397.417 63.9323 397.267 64.1767 396.872 64.1767H382.235C381.84 64.1767 381.69 64.0545 381.69 63.6704V34.6897C381.69 34.323 381.84 34.1834 382.235 34.1834H397.003C397.135 34.1834 397.417 34.1834 397.417 34.323C397.452 34.323 397.486 34.3359 397.51 34.3588C397.535 34.3817 397.549 34.4128 397.549 34.4452L397.417 34.9515L396.74 36.837C396.74 37.0814 396.458 37.2037 396.063 37.2037H385.49V47.0152H394.896C395.291 47.0152 395.442 47.1374 395.442 47.5215V49.5816C395.442 49.9482 395.291 50.0879 394.896 50.0879H385.49V61.139H396.778C396.844 61.1342 396.911 61.1418 396.975 61.1611C397.039 61.1805 397.097 61.2114 397.148 61.252C397.199 61.2925 397.24 61.342 397.27 61.3975C397.3 61.453 397.318 61.5135 397.323 61.5754V63.5482H397.417ZM420.971 63.6704C420.971 64.0545 420.707 64.1767 420.293 64.1767H417.735C417.56 64.1703 417.391 64.1197 417.245 64.0305C417.099 63.9413 416.982 63.8168 416.907 63.6704L406.071 42.0571C405.444 40.8605 404.988 39.5926 404.716 38.2861C404.867 39.0368 404.999 39.7875 405.13 40.416V63.7228C405.13 64.1069 404.999 64.2291 404.585 64.2291H402.158C401.744 64.2291 401.612 64.1069 401.612 63.7228V34.6897C401.612 34.323 401.744 34.1834 402.158 34.1834H405.394C405.534 34.1825 405.672 34.2179 405.791 34.2858C405.911 34.3537 406.008 34.4512 406.071 34.5674L416.512 55.0635C416.644 55.4301 416.907 56.0586 417.058 56.5649C417.279 57.1341 417.455 57.7176 417.584 58.3107H417.735C417.66 57.8917 417.565 57.4727 417.453 57.0537C417.361 56.599 417.317 56.1371 417.321 55.6745V34.7246C417.321 34.358 417.453 34.2183 417.866 34.2183H420.293C420.707 34.2183 420.971 34.358 420.971 34.7246V63.6704ZM435.87 37.1513V63.7228C435.87 64.1069 435.738 64.2291 435.343 64.2291H432.634C432.221 64.2291 432.089 64.1069 432.089 63.7228V37.2037H425.034C424.639 37.2037 424.507 37.0814 424.507 36.6974V34.6897C424.507 34.323 424.639 34.1834 425.034 34.1834H443.602C443.997 34.1834 444.279 34.323 444.279 34.5674L443.997 35.0737L443.32 36.6974C443.289 36.8421 443.204 36.9721 443.08 37.0647C442.957 37.1573 442.802 37.2065 442.643 37.2037L435.87 37.1513ZM335.241 34.131V38.4083C335.185 38.7938 335.091 39.1737 334.959 39.5431C334.756 40.524 334.486 41.492 334.15 42.4411L331.31 52.1654H335.241V55.3079H330.369L328.055 63.7228C327.923 64.1069 327.66 64.2291 327.114 64.2291H324.274C323.728 64.2291 323.596 64.1069 323.596 63.9847L323.728 63.234L333.134 34.6897C333.169 34.5464 333.254 34.4183 333.377 34.3263C333.5 34.2343 333.654 34.1839 333.812 34.1834L335.241 34.131ZM292.443 53.178V47.6437C293.533 47.4756 294.583 47.133 295.547 46.6311C296.19 46.0761 296.685 45.3894 296.992 44.6256C297.299 43.8618 297.41 43.0421 297.315 42.2316C297.315 40.1017 296.77 38.7225 295.678 38.094C294.672 37.6238 293.568 37.3618 292.443 37.3259V34.1834C294.517 34.1968 296.556 34.676 298.387 35.58C300.269 36.5752 301.096 38.7225 301.096 42.1094C301.183 43.0553 301.061 44.0075 300.737 44.908C300.414 45.8085 299.896 46.6384 299.215 47.3469C298.091 48.6752 296.584 49.6802 294.869 50.245L302.733 63.5482L302.997 64.0545C302.733 64.2989 302.601 64.4211 302.451 64.4211L299.479 64.9274C299.338 64.9447 299.195 64.9181 299.072 64.8517C298.95 64.7853 298.854 64.683 298.801 64.5608L292.443 53.2478V53.178ZM315.187 37.2037V63.7228C315.187 64.1069 315.055 64.2291 314.642 64.2291H311.933C311.537 64.2291 311.406 64.1069 311.406 63.7228V37.2037H304.351C303.956 37.2037 303.805 37.0814 303.805 36.6974V34.6897C303.805 34.323 303.956 34.1834 304.351 34.1834H322.919C323.314 34.1834 323.446 34.323 323.446 34.5674L323.314 35.0737L322.637 36.6974C322.606 36.8421 322.521 36.9721 322.397 37.0647C322.274 37.1573 322.119 37.2065 321.96 37.2037H315.187ZM292.443 34.1834V37.3608C292.045 37.2581 291.632 37.2168 291.22 37.2386H287.551V47.7136H292.443V53.2478L290.938 50.5942H287.551V63.7228C287.559 63.7825 287.554 63.843 287.537 63.9009C287.519 63.9588 287.489 64.0128 287.449 64.0599C287.409 64.107 287.359 64.1462 287.302 64.1753C287.245 64.2043 287.183 64.2226 287.119 64.2291H284.165C284.101 64.2339 284.036 64.2268 283.975 64.2083C283.914 64.1898 283.857 64.1602 283.808 64.1213C283.759 64.0823 283.719 64.0348 283.69 63.9814C283.661 63.928 283.643 63.8698 283.638 63.8101V34.6897C283.63 34.63 283.635 34.5695 283.653 34.5116C283.671 34.4537 283.7 34.3997 283.741 34.3526C283.781 34.3055 283.831 34.2662 283.888 34.2372C283.944 34.2082 284.007 34.1899 284.071 34.1834H292.443ZM267.779 55.3079V52.1654H271.711L268.87 42.4935C268.587 41.6697 268.361 40.83 268.193 39.9795C267.963 39.4562 267.823 38.9023 267.779 38.3384V34.1834H269.228C269.386 34.1839 269.539 34.2343 269.662 34.3263C269.785 34.4183 269.871 34.5464 269.905 34.6897L279.311 63.234L279.594 63.9847C279.594 64.1069 279.311 64.2291 278.916 64.2291H275.925C275.747 64.2514 275.566 64.2122 275.417 64.1188C275.268 64.0255 275.161 63.8846 275.116 63.7228L272.407 55.3079H267.779ZM267.779 34.1834V38.4607C267.654 38.8305 267.566 39.2104 267.516 39.5954C267.163 40.5397 266.892 41.5089 266.707 42.4935L263.847 52.1654H267.779V55.3079H262.907L260.612 63.7228C260.563 63.886 260.453 64.0272 260.3 64.1203C260.148 64.2135 259.965 64.2521 259.784 64.2291H256.812C256.398 64.2291 256.134 64.1069 256.134 63.9847L256.398 63.234L265.804 34.6897C265.804 34.323 266.086 34.1834 266.481 34.1834H267.779ZM245.844 51.5369V48.3944C246.999 48.2189 248.105 47.8332 249.098 47.2596C249.73 46.5721 250.2 45.7698 250.479 44.904C250.757 44.0383 250.838 43.1281 250.716 42.2316C250.716 40.1017 250.171 38.74 249.098 38.094C248.093 37.6055 246.978 37.3424 245.844 37.3259V34.1834C247.966 34.1962 250.054 34.6748 251.939 35.58C253.689 36.5752 254.648 38.7225 254.648 42.1094C254.648 45.4963 253.689 48.0103 251.657 49.407C249.963 50.5922 247.953 51.3283 245.844 51.5369ZM201.277 60.8422C202.12 60.6784 202.914 60.3449 203.603 59.8653C204.292 59.3857 204.859 58.7716 205.265 58.0663C206.503 55.1108 207.055 51.9457 206.883 48.7785C206.883 44.2393 206.206 41.0969 204.851 39.5954C203.964 38.5689 202.721 37.8594 201.333 37.5877V34.323C203.741 34.5691 206.011 35.4884 207.842 36.9592C210.137 38.8447 211.229 42.8601 211.229 48.9007C211.229 54.2953 210.137 58.206 208.106 60.5803C206.398 62.4894 203.982 63.7353 201.333 64.072V60.9295L201.277 60.8422ZM245.844 34.1834V37.3608C245.45 37.2419 245.033 37.2003 244.621 37.2386H241.103V48.5515H244.075C244.753 48.5515 245.298 48.4293 245.844 48.4293V51.5718H241.103V63.7926C241.103 64.1767 240.821 64.2989 240.426 64.2989H237.717C237.303 64.2989 237.171 64.1767 237.171 63.7926V34.6897C237.171 34.323 237.303 34.1834 237.717 34.1834H245.844ZM232.43 63.5482C232.435 63.6262 232.424 63.7044 232.396 63.7782C232.369 63.852 232.326 63.9201 232.27 63.9785C232.214 64.0369 232.146 64.0844 232.07 64.1185C231.995 64.1525 231.912 64.1723 231.828 64.1767H217.267C216.854 64.1767 216.59 64.0545 216.59 63.6704V34.6897C216.59 34.323 216.854 34.1834 217.267 34.1834H231.885C232.167 34.1834 232.299 34.1834 232.43 34.323L232.562 34.4452L232.43 34.9515L231.753 36.837C231.686 36.9487 231.588 37.0417 231.468 37.1062C231.349 37.1706 231.214 37.2043 231.076 37.2037H220.503V47.0152H229.909C230.323 47.0152 230.455 47.1374 230.455 47.5215V49.5816C230.455 49.9482 230.323 50.0879 229.909 50.0879H220.503V61.139H231.885C231.952 61.1342 232.019 61.1418 232.082 61.1611C232.146 61.1805 232.205 61.2114 232.255 61.252C232.306 61.2925 232.348 61.342 232.378 61.3975C232.408 61.453 232.426 61.5135 232.43 61.5754V63.5482ZM198.699 61.0342C199.567 61.0836 200.438 61.0011 201.277 60.7898V63.9323C200.155 64.0831 199.024 64.1648 197.89 64.1767H192.472C192.058 64.1767 191.927 64.0545 191.927 63.6704V34.6897C191.927 34.323 192.058 34.1834 192.472 34.1834H198.436C199.385 34.1515 200.336 34.1982 201.277 34.323V37.5877C200.317 37.3028 199.311 37.1729 198.304 37.2037H195.727V61.0866L198.699 61.0342Z" fill="#1D1D1B"></path><path d="M515.109 135.756V134.621H516.99L515.109 128.72V127.463H516.2L519.962 138.392H518.325L517.385 135.756H515.109ZM515.109 127.463V128.72L513.227 134.621H515.109V135.756H512.945L512.004 138.392H510.518L514.281 127.463H515.109ZM504.95 138.392V137.135C505.245 137.158 505.543 137.125 505.824 137.038C506.106 136.951 506.365 136.812 506.586 136.629C506.771 136.444 506.915 136.227 507.008 135.99C507.102 135.753 507.144 135.501 507.132 135.249C507.159 134.967 507.111 134.683 506.993 134.421C506.875 134.159 506.691 133.928 506.455 133.748C505.996 133.485 505.484 133.312 504.95 133.242V132.107H505.1C505.319 132.106 505.535 132.063 505.735 131.982C505.936 131.901 506.117 131.783 506.267 131.636C506.536 131.264 506.68 130.826 506.68 130.379C506.68 129.931 506.536 129.493 506.267 129.122C505.883 128.841 505.398 128.71 504.912 128.755V127.498H505.194C505.744 127.501 506.29 127.584 506.812 127.742C507.153 127.968 507.474 128.219 507.772 128.493C507.884 128.797 508.016 129.094 508.167 129.384V130.012C508.207 130.616 508.071 131.22 507.772 131.758C507.606 131.998 507.385 132.201 507.125 132.352C506.865 132.503 506.572 132.598 506.267 132.631V132.753C506.601 132.759 506.93 132.829 507.235 132.958C507.539 133.087 507.811 133.273 508.035 133.504C508.428 134.01 508.621 134.627 508.581 135.249C508.581 136.506 508.298 137.397 507.621 137.763C506.843 138.18 505.96 138.397 505.063 138.392H504.95ZM504.95 127.463V128.72H502.786V132.107H504.95V133.242H502.786V137.135H504.95V138.392H501.3V127.463H504.95ZM464.183 138.514V137.519C464.383 137.526 464.583 137.495 464.77 137.429C464.957 137.363 465.129 137.263 465.274 137.135C465.514 136.849 465.652 136.502 465.669 136.14H467.174C467.195 136.471 467.13 136.802 466.987 137.105C466.843 137.409 466.623 137.676 466.346 137.886C466.055 138.127 465.711 138.308 465.338 138.417C464.964 138.525 464.571 138.558 464.183 138.514ZM464.183 135.023V134.01H465.819C465.881 133.318 465.738 132.624 465.406 132.002C465.086 131.69 464.647 131.508 464.183 131.496V130.623C465.406 130.623 466.214 130.867 466.628 131.496C467.098 132.396 467.287 133.4 467.174 134.394V135.023H464.183ZM472.31 138.514C471.922 138.558 471.528 138.525 471.155 138.417C470.782 138.308 470.438 138.127 470.146 137.886C469.905 137.628 469.721 137.329 469.604 137.006C469.488 136.682 469.442 136.34 469.469 136H470.955C470.954 136.394 471.051 136.782 471.237 137.135C471.369 137.397 471.764 137.519 472.31 137.519C472.692 137.52 473.067 137.429 473.401 137.257C473.532 137.147 473.635 137.012 473.703 136.861C473.771 136.711 473.803 136.548 473.796 136.384C473.796 136 473.269 135.634 472.31 135.127C471.595 134.81 470.915 134.43 470.278 133.992C470.055 133.857 469.876 133.67 469.757 133.449C469.638 133.228 469.584 132.982 469.601 132.735C469.603 132.172 469.847 131.632 470.278 131.234C470.575 131.001 470.92 130.825 471.291 130.717C471.663 130.609 472.054 130.571 472.441 130.606C473.116 130.54 473.791 130.722 474.323 131.112C474.579 131.304 474.776 131.555 474.895 131.84C475.014 132.125 475.05 132.434 475 132.735H473.514C473.514 131.985 473.1 131.479 472.291 131.479C472.113 131.469 471.934 131.499 471.771 131.565C471.607 131.632 471.463 131.734 471.35 131.863C471.068 131.985 471.068 132.229 471.068 132.613C471.068 132.997 471.482 133.364 472.423 133.748C473.143 134.056 473.824 134.437 474.454 134.883C474.695 135.031 474.886 135.239 475.006 135.482C475.126 135.726 475.169 135.996 475.132 136.262C475.149 136.591 475.085 136.919 474.945 137.222C474.804 137.524 474.592 137.793 474.323 138.008C473.719 138.368 473.007 138.539 472.291 138.497L472.31 138.514ZM480.851 133.626H484.5V134.883H480.851V133.626ZM490.727 127.463H492.232V134.446C492.124 135.237 492.31 136.037 492.759 136.716C493.215 137.121 493.821 137.348 494.452 137.348C495.083 137.348 495.69 137.121 496.145 136.716C496.557 136.023 496.747 135.236 496.691 134.446V127.463H498.177V134.446C498.248 135.6 497.919 136.744 497.237 137.711C496.876 138.067 496.433 138.344 495.941 138.519C495.449 138.694 494.921 138.764 494.396 138.724C493.891 138.754 493.386 138.679 492.917 138.504C492.448 138.329 492.027 138.058 491.687 137.711C490.936 136.774 490.593 135.608 490.727 134.446V127.463ZM464.183 130.606V131.479C463.939 131.481 463.699 131.539 463.485 131.649C463.272 131.759 463.091 131.916 462.96 132.107C462.634 132.687 462.497 133.342 462.565 133.992H464.183V135.005H462.565C462.505 135.695 462.642 136.387 462.96 137.013C463.096 137.191 463.282 137.332 463.497 137.421C463.712 137.51 463.949 137.544 464.183 137.519V138.514C463.765 138.539 463.347 138.485 462.953 138.356C462.558 138.227 462.196 138.026 461.888 137.763C461.213 136.843 460.926 135.725 461.079 134.621C461.047 133.579 461.279 132.545 461.756 131.601C462.019 130.972 462.998 130.606 464.183 130.606ZM451.315 138.514V137.519C451.729 137.519 451.992 137.257 452.274 136.891C452.724 136.212 452.91 135.411 452.801 134.621H451.315V133.748C451.802 133.646 452.302 133.605 452.801 133.626C452.818 133.109 452.728 132.593 452.538 132.107C452.451 131.909 452.298 131.741 452.102 131.628C451.906 131.515 451.677 131.463 451.447 131.479H451.315V130.606H451.447C451.814 130.566 452.187 130.601 452.538 130.71C452.889 130.818 453.21 130.997 453.478 131.234C453.711 131.443 453.892 131.697 454.009 131.977C454.126 132.257 454.176 132.558 454.156 132.858V136.506C454.131 137.138 454.181 137.771 454.306 138.392H452.801V137.257C452.61 137.643 452.334 137.988 451.992 138.27C451.71 138.392 451.597 138.392 451.315 138.514ZM458.501 138.392H457.147V127.463H458.501V138.392ZM451.315 130.606V131.479C450.92 131.601 450.638 131.601 450.506 131.863C450.365 131.965 450.253 132.099 450.181 132.251C450.109 132.403 450.078 132.57 450.092 132.735V132.858H448.606C448.589 132.529 448.653 132.201 448.793 131.898C448.933 131.595 449.146 131.327 449.415 131.112C449.947 130.722 450.622 130.54 451.296 130.606H451.315ZM451.315 133.748V134.621C451.052 134.743 450.769 134.743 450.638 134.883C450.092 135.005 449.829 135.372 449.829 136.14C449.84 136.485 449.93 136.824 450.092 137.135C450.21 137.263 450.357 137.364 450.524 137.43C450.69 137.497 450.871 137.527 451.051 137.519H451.315V138.514H450.769C450.444 138.561 450.111 138.527 449.804 138.417C449.497 138.306 449.227 138.123 449.02 137.886C448.799 137.621 448.637 137.317 448.543 136.994C448.45 136.67 448.426 136.332 448.474 136C448.414 135.603 448.503 135.199 448.725 134.856C448.948 134.513 449.291 134.251 449.697 134.115C450.186 133.847 450.748 133.72 451.315 133.748ZM423.284 138.514V137.519C423.504 137.501 423.715 137.434 423.902 137.325C424.088 137.215 424.244 137.067 424.356 136.891C424.708 136.181 424.851 135.398 424.77 134.621H423.284V133.748C423.77 133.638 424.271 133.596 424.77 133.626C424.845 133.107 424.753 132.578 424.507 132.107C424.437 131.898 424.289 131.719 424.088 131.603C423.887 131.488 423.649 131.444 423.416 131.479H423.284V130.606H423.491C424.272 130.554 425.044 130.779 425.654 131.234C426.027 131.703 426.219 132.275 426.2 132.858V136.506C426.178 137.137 426.222 137.769 426.332 138.392H424.846V137.257C424.648 137.639 424.373 137.983 424.037 138.27C423.905 138.392 423.623 138.392 423.359 138.514H423.284ZM429.379 130.728V129.226L430.602 128.72V130.728H432.483V131.74H430.602V136.384C430.581 136.657 430.676 136.926 430.866 137.135C430.997 137.397 431.279 137.519 431.806 137.519L432.483 137.397V138.392H431.806C431.595 138.484 431.362 138.526 431.129 138.514C429.925 138.514 429.379 138.025 429.379 137.135V131.74H428.025V130.728H429.379ZM438.579 130.728H439.933V138.392H438.541V137.519C438.294 137.835 437.968 138.091 437.592 138.264C437.215 138.438 436.798 138.523 436.378 138.514C434.891 138.514 434.083 137.886 434.083 136.506V130.728H435.437V135.965C435.403 136.377 435.545 136.785 435.832 137.1C435.96 137.257 436.124 137.384 436.314 137.472C436.503 137.56 436.712 137.606 436.923 137.606C437.343 137.573 437.733 137.392 438.014 137.1C438.372 136.719 438.561 136.226 438.541 135.721V130.728H438.579ZM444.222 131.863C444.486 131.356 444.749 130.972 445.163 130.85C445.686 130.691 446.231 130.609 446.781 130.606V131.863H446.066C445.793 131.828 445.514 131.856 445.255 131.945C444.996 132.033 444.764 132.178 444.58 132.369C444.292 132.822 444.154 133.345 444.185 133.87V138.392H442.83V130.728H444.185L444.222 131.863ZM423.359 130.606V131.479C422.945 131.601 422.682 131.601 422.55 131.863C422.405 131.962 422.291 132.095 422.218 132.248C422.146 132.401 422.118 132.569 422.136 132.735V132.858H420.782C420.734 132.538 420.77 132.211 420.888 131.907C421.006 131.603 421.202 131.33 421.459 131.112C421.991 130.722 422.666 130.54 423.34 130.606H423.359ZM423.359 133.748V134.621C423.077 134.743 422.814 134.743 422.682 134.883C422.137 135.005 421.873 135.372 421.873 136.14C421.885 136.485 421.974 136.824 422.136 137.135C422.274 137.273 422.444 137.379 422.634 137.445C422.823 137.512 423.026 137.537 423.228 137.519H423.359V138.514H422.814C422.487 138.541 422.158 138.498 421.852 138.389C421.545 138.28 421.269 138.108 421.045 137.886C420.613 137.344 420.424 136.668 420.519 136C420.457 135.606 420.543 135.203 420.762 134.86C420.981 134.517 421.32 134.254 421.723 134.115C422.221 133.855 422.788 133.728 423.359 133.748ZM380.824 138.514V137.519C381.045 137.498 381.259 137.43 381.448 137.321C381.637 137.213 381.796 137.065 381.915 136.891C382.25 136.177 382.386 135.396 382.31 134.621H380.824V133.748C381.311 133.646 381.811 133.605 382.31 133.626C382.351 133.116 382.307 132.604 382.178 132.107C382.075 131.894 381.9 131.717 381.68 131.604C381.459 131.491 381.205 131.447 380.956 131.479H380.824V130.606H380.956C381.343 130.571 381.734 130.609 382.106 130.717C382.477 130.825 382.822 131.001 383.119 131.234C383.327 131.454 383.483 131.713 383.577 131.992C383.671 132.272 383.701 132.567 383.665 132.858V136.506C383.643 137.137 383.687 137.769 383.796 138.392H382.31V137.257C382.156 137.662 381.874 138.015 381.501 138.27C381.37 138.392 381.087 138.392 380.824 138.514ZM389.083 138.514C388.715 138.558 388.341 138.524 387.989 138.415C387.638 138.307 387.317 138.126 387.051 137.886C386.764 137.654 386.541 137.362 386.4 137.034C386.26 136.706 386.205 136.352 386.242 136H387.747C387.712 136.384 387.764 136.77 387.898 137.135C388.053 137.281 388.242 137.392 388.451 137.458C388.66 137.525 388.882 137.546 389.102 137.519C389.442 137.521 389.776 137.43 390.061 137.257C390.192 137.147 390.295 137.012 390.363 136.861C390.431 136.711 390.463 136.548 390.456 136.384C390.456 136 390.061 135.634 389.102 135.127C388.345 134.811 387.62 134.431 386.938 133.992C386.735 133.847 386.578 133.653 386.482 133.432C386.386 133.212 386.355 132.971 386.392 132.735C386.365 132.453 386.413 132.169 386.531 131.907C386.649 131.645 386.834 131.414 387.07 131.234C387.37 131 387.718 130.824 388.093 130.716C388.467 130.608 388.862 130.571 389.252 130.606C389.925 130.551 390.596 130.731 391.133 131.112C391.366 131.321 391.547 131.574 391.664 131.855C391.781 132.135 391.831 132.436 391.811 132.735H390.324C390.324 131.985 389.929 131.479 389.102 131.479C388.923 131.469 388.745 131.499 388.581 131.565C388.418 131.632 388.274 131.734 388.161 131.863C388.022 131.938 387.91 132.049 387.836 132.182C387.763 132.315 387.732 132.465 387.747 132.613C387.747 132.858 388.293 133.364 389.252 133.748C389.972 134.056 390.653 134.437 391.284 134.883C391.52 135.035 391.707 135.243 391.826 135.486C391.946 135.729 391.992 135.997 391.961 136.262C391.979 136.593 391.913 136.923 391.77 137.226C391.626 137.529 391.408 137.797 391.133 138.008C390.492 138.393 389.73 138.565 388.97 138.497L389.083 138.514ZM400.37 136.891L402.402 130.728H403.888L400.126 141.203H398.771L399.712 138.305L396.871 130.641H398.489L400.37 136.803V136.891ZM417.565 127.463V138.392H415.533L410.792 128.965V138.392H409.438V127.463H411.62L416.211 136.768V127.463H417.565ZM380.73 130.606V131.479C380.316 131.601 380.053 131.601 379.921 131.863C379.776 131.962 379.662 132.095 379.589 132.248C379.516 132.401 379.488 132.569 379.507 132.735V132.858H378.341C378.292 132.538 378.329 132.211 378.447 131.907C378.565 131.603 378.761 131.33 379.018 131.112C379.55 130.722 380.225 130.54 380.899 130.606H380.73ZM380.73 133.748V134.621C380.467 134.743 380.184 134.743 380.053 134.883C379.507 135.005 379.244 135.372 379.244 136.14C379.255 136.485 379.345 136.824 379.507 137.135C379.645 137.273 379.815 137.379 380.004 137.445C380.194 137.512 380.397 137.537 380.598 137.519H380.73V138.514H380.222C379.898 138.541 379.572 138.498 379.268 138.389C378.965 138.28 378.693 138.108 378.472 137.886C378.251 137.621 378.089 137.317 377.996 136.994C377.902 136.67 377.879 136.332 377.927 136C377.867 135.603 377.955 135.199 378.178 134.856C378.4 134.513 378.744 134.251 379.15 134.115C379.638 133.847 380.201 133.72 380.768 133.748H380.73ZM358.644 138.514V137.519C359.058 137.519 359.321 137.257 359.603 136.891C359.998 136.192 360.186 135.409 360.149 134.621H358.644V133.748C359.138 133.646 359.644 133.605 360.149 133.626C360.15 133.108 360.054 132.594 359.867 132.107C359.763 131.894 359.588 131.717 359.368 131.604C359.148 131.491 358.893 131.447 358.644 131.479V130.606H358.794C359.161 130.581 359.529 130.623 359.878 130.731C360.227 130.839 360.549 131.01 360.826 131.234C361.03 131.456 361.182 131.715 361.273 131.995C361.363 132.274 361.391 132.568 361.353 132.858V136.506C361.39 137.141 361.485 137.772 361.635 138.392H360.149V137.257C359.94 137.673 359.607 138.025 359.189 138.27C359.058 138.392 358.794 138.392 358.644 138.514ZM368.803 133.277C368.852 132.826 368.71 132.375 368.408 132.02C368.125 131.775 367.994 131.636 367.599 131.636C367.365 131.611 367.128 131.645 366.913 131.734C366.698 131.823 366.512 131.964 366.376 132.142C365.979 132.745 365.789 133.445 365.83 134.15C365.76 135.052 365.901 135.957 366.244 136.803C366.362 137.041 366.554 137.24 366.796 137.374C367.038 137.508 367.318 137.571 367.599 137.554C367.792 137.565 367.984 137.523 368.152 137.433C368.319 137.343 368.454 137.209 368.539 137.048C368.709 136.69 368.799 136.304 368.803 135.913H370.157C370.193 136.282 370.139 136.655 369.999 137.002C369.859 137.35 369.636 137.663 369.348 137.921C368.858 138.307 368.241 138.528 367.599 138.549C367.179 138.572 366.758 138.518 366.361 138.389C365.963 138.26 365.598 138.059 365.285 137.798C364.611 136.878 364.323 135.76 364.476 134.656C364.526 133.62 364.761 132.6 365.172 131.636C365.476 131.282 365.872 131.005 366.323 130.831C366.773 130.657 367.264 130.592 367.749 130.641C369.499 130.641 370.308 131.513 370.308 133.277H368.803ZM373.148 130.763V129.261L374.503 128.755V130.763H376.384V131.775H374.503V136.419C374.482 136.692 374.576 136.961 374.766 137.17C374.898 137.432 375.18 137.554 375.726 137.554L376.403 137.432V138.427H375.726C375.512 138.511 375.281 138.552 375.048 138.549C373.826 138.549 373.167 138.06 373.167 137.17V131.74H371.813V130.728L373.148 130.763ZM358.644 130.641V131.513C358.249 131.636 357.967 131.636 357.703 131.898C357.515 132.154 357.422 132.461 357.44 132.77V132.893H355.935C355.914 132.252 356.156 131.628 356.612 131.147C357.227 130.736 357.986 130.555 358.738 130.641H358.644ZM358.644 133.783V134.656C358.368 134.725 358.097 134.812 357.835 134.918C357.289 135.04 357.026 135.407 357.026 136.175C357.017 136.358 357.049 136.541 357.12 136.713C357.192 136.884 357.3 137.04 357.44 137.17C357.546 137.306 357.689 137.413 357.854 137.48C358.019 137.548 358.201 137.573 358.38 137.554H358.644V138.619H357.967C357.643 138.638 357.32 138.591 357.017 138.483C356.715 138.374 356.442 138.206 356.217 137.99C355.831 137.416 355.641 136.747 355.671 136.07C355.671 135.075 355.954 134.446 356.763 134.185C357.305 133.933 357.906 133.807 358.512 133.818L358.644 133.783ZM322.448 138.619V137.624C322.668 137.605 322.88 137.539 323.066 137.429C323.253 137.32 323.408 137.171 323.521 136.995C323.872 136.286 324.015 135.503 323.935 134.726H322.448V133.853C322.936 133.751 323.436 133.71 323.935 133.731C323.976 133.221 323.931 132.709 323.803 132.212C323.7 131.998 323.525 131.822 323.304 131.709C323.084 131.595 322.83 131.551 322.58 131.583H322.448V130.71H322.712C323.078 130.685 323.447 130.728 323.795 130.836C324.144 130.944 324.466 131.115 324.743 131.339C324.952 131.559 325.108 131.817 325.202 132.097C325.296 132.377 325.326 132.671 325.289 132.962V136.611C325.311 137.246 325.399 137.878 325.552 138.497H323.784V137.362C323.731 137.573 323.632 137.772 323.492 137.946C323.353 138.12 323.177 138.266 322.975 138.375C322.843 138.497 322.561 138.497 322.298 138.619H322.448ZM330.839 138.619C330.451 138.663 330.057 138.63 329.684 138.522C329.311 138.413 328.967 138.232 328.675 137.99C328.434 137.733 328.25 137.434 328.134 137.111C328.017 136.787 327.971 136.445 327.998 136.105H329.428C329.427 136.498 329.523 136.887 329.71 137.24C329.842 137.502 330.237 137.624 330.782 137.624C331.164 137.624 331.54 137.534 331.873 137.362C332.004 137.252 332.107 137.117 332.176 136.966C332.244 136.815 332.276 136.653 332.269 136.489C332.269 136.105 331.742 135.738 330.782 135.232C330.068 134.915 329.387 134.535 328.751 134.097C328.528 133.962 328.348 133.774 328.229 133.554C328.11 133.333 328.056 133.087 328.073 132.84C328.076 132.276 328.32 131.736 328.751 131.339C329.362 130.887 330.134 130.663 330.914 130.71C331.588 130.645 332.263 130.826 332.795 131.217C333.075 131.394 333.298 131.639 333.441 131.925C333.583 132.211 333.64 132.527 333.604 132.84H332.118C332.128 132.684 332.105 132.528 332.05 132.38C331.995 132.233 331.909 132.097 331.797 131.98C331.685 131.863 331.55 131.768 331.398 131.7C331.247 131.632 331.082 131.592 330.914 131.583H330.764C330.585 131.574 330.407 131.603 330.243 131.67C330.08 131.737 329.936 131.839 329.823 131.967C329.628 132.174 329.527 132.443 329.541 132.718C329.541 132.962 329.955 133.469 330.895 133.853C331.649 134.186 332.378 134.565 333.077 134.988C333.473 135.232 333.604 135.616 333.604 136.367C333.621 136.696 333.557 137.024 333.417 137.327C333.277 137.629 333.064 137.898 332.795 138.113C332.191 138.472 331.48 138.644 330.764 138.601L330.839 138.619ZM339.775 138.497V127.463H345.87V128.72H341.28V132.212H345.607V133.381H341.28V137.152H346.021V138.409L339.775 138.497ZM354.279 138.497H352.511L350.63 135.354L348.748 138.497H347.243L349.821 134.481L347.394 130.833H349.143L350.78 133.591L352.398 130.833H353.884L351.457 134.481L354.279 138.497ZM322.448 130.71V131.583C322.166 131.705 321.903 131.705 321.639 131.967C321.434 132.217 321.334 132.527 321.357 132.84V132.962H319.871C319.852 132.644 319.902 132.326 320.018 132.026C320.135 131.726 320.315 131.451 320.548 131.217C321.094 130.852 321.758 130.673 322.43 130.71H322.448ZM322.448 133.853V134.726C322.216 134.798 321.99 134.886 321.771 134.988C321.226 135.11 320.962 135.476 320.962 136.245C320.95 136.611 321.091 136.968 321.357 137.24C321.467 137.376 321.614 137.483 321.782 137.55C321.95 137.617 322.135 137.643 322.317 137.624H322.448V138.619H321.903C321.577 138.636 321.251 138.589 320.946 138.48C320.641 138.372 320.365 138.205 320.134 137.99C319.815 137.409 319.678 136.755 319.739 136.105C319.739 135.11 320.003 134.481 320.812 134.219C321.32 133.984 321.88 133.859 322.448 133.853ZM292.913 138.619V137.624C293.113 137.63 293.312 137.6 293.5 137.534C293.687 137.468 293.858 137.368 294.004 137.24C294.243 136.954 294.381 136.606 294.399 136.245H295.753C295.802 136.565 295.765 136.891 295.647 137.195C295.529 137.499 295.333 137.772 295.076 137.99C294.784 138.232 294.44 138.413 294.067 138.522C293.694 138.63 293.301 138.663 292.913 138.619ZM292.913 135.127V134.115H294.399C294.458 133.425 294.322 132.733 294.004 132.107C293.873 131.953 293.708 131.828 293.519 131.74C293.331 131.653 293.123 131.605 292.913 131.601V130.728C294.135 130.728 294.794 130.972 295.226 131.601C295.748 132.486 295.984 133.492 295.904 134.499V135.127H292.913ZM303.071 138.514V133.277C303.105 132.865 302.964 132.457 302.676 132.142C302.544 131.997 302.375 131.886 302.184 131.819C301.993 131.752 301.787 131.731 301.585 131.758C301.32 131.742 301.054 131.792 300.817 131.902C300.579 132.013 300.376 132.18 300.231 132.386C299.944 132.891 299.801 133.457 299.817 134.027V138.549H298.613V132.439C298.613 131.932 298.462 131.426 298.462 130.798H299.817V131.81H299.967C300.157 131.458 300.434 131.153 300.776 130.92C301.208 130.762 301.667 130.679 302.131 130.675C302.455 130.649 302.781 130.692 303.084 130.801C303.388 130.91 303.66 131.082 303.88 131.304C304.213 131.882 304.357 132.537 304.294 133.189V138.427L303.071 138.514ZM311.481 133.277C311.524 132.824 311.376 132.373 311.067 132.02C310.985 131.891 310.866 131.786 310.722 131.718C310.579 131.65 310.418 131.622 310.258 131.636C310.024 131.611 309.787 131.645 309.572 131.734C309.357 131.823 309.171 131.964 309.035 132.142C308.702 132.764 308.559 133.458 308.621 134.15C308.526 135.043 308.622 135.945 308.903 136.803C309.021 137.041 309.213 137.24 309.455 137.374C309.697 137.508 309.977 137.571 310.258 137.554C310.451 137.565 310.643 137.523 310.811 137.433C310.978 137.343 311.113 137.209 311.198 137.048C311.367 136.689 311.463 136.304 311.481 135.913H312.967C312.985 136.294 312.908 136.673 312.742 137.022C312.575 137.37 312.324 137.678 312.007 137.921C311.522 138.314 310.902 138.537 310.258 138.549C309.838 138.572 309.417 138.518 309.02 138.389C308.622 138.26 308.257 138.059 307.944 137.798C307.27 136.878 306.982 135.76 307.135 134.656C307.115 133.615 307.347 132.583 307.812 131.636C308.094 131.007 309.035 130.641 310.258 130.641C312.007 130.641 312.835 131.513 312.835 133.277H311.481ZM317.124 138.514H315.77V130.728H317.124V138.444V138.514ZM315.77 127.585H317.256V128.965H315.77V127.585ZM293.007 130.728V131.601H292.875C292.654 131.622 292.44 131.689 292.251 131.798C292.062 131.907 291.902 132.055 291.784 132.229C291.458 132.809 291.32 133.464 291.389 134.115H293.007V135.127H291.389C291.329 135.817 291.465 136.509 291.784 137.135C291.92 137.313 292.106 137.454 292.321 137.543C292.536 137.632 292.773 137.666 293.007 137.641V138.619C292.589 138.651 292.168 138.601 291.772 138.472C291.377 138.342 291.015 138.137 290.711 137.868C290.037 136.948 289.749 135.83 289.903 134.726C289.907 133.7 290.085 132.681 290.429 131.705C290.726 131.344 291.121 131.061 291.574 130.886C292.026 130.712 292.521 130.651 293.007 130.71V130.728ZM267.139 138.619V137.624H267.346C267.527 137.632 267.708 137.602 267.874 137.535C268.04 137.469 268.188 137.368 268.306 137.24C268.545 136.954 268.683 136.606 268.701 136.245H270.187C270.215 136.575 270.155 136.906 270.015 137.21C269.874 137.514 269.655 137.782 269.378 137.99C269.112 138.23 268.791 138.411 268.439 138.52C268.088 138.629 267.714 138.663 267.346 138.619H267.139ZM267.139 135.127V134.115H268.757C268.817 133.425 268.68 132.733 268.362 132.107C268.043 131.794 267.603 131.612 267.139 131.601V130.728H267.346C267.78 130.676 268.221 130.729 268.627 130.882C269.032 131.035 269.388 131.283 269.66 131.601C270.182 132.486 270.417 133.492 270.337 134.499V135.127H267.139ZM281.775 130.606V129.541C281.775 129.296 281.625 129.157 281.493 128.912C281.286 128.758 281.059 128.629 280.816 128.528H280.139C279.593 128.528 279.198 128.528 278.916 128.79C278.634 129.052 278.389 129.157 278.239 129.418C278.115 129.694 278.07 129.995 278.107 130.291C278.107 130.658 277.975 130.92 277.975 131.548V134.569C277.919 135.397 278.108 136.224 278.521 136.96C278.738 137.144 278.994 137.284 279.273 137.371C279.551 137.458 279.846 137.491 280.139 137.467C280.392 137.491 280.648 137.458 280.884 137.37C281.12 137.281 281.329 137.141 281.493 136.96C281.849 136.438 282.038 135.833 282.039 135.215H283.525C283.584 136.153 283.299 137.082 282.716 137.851C282.392 138.142 282.009 138.371 281.59 138.524C281.17 138.677 280.721 138.75 280.27 138.741C279.3 138.772 278.347 138.501 277.561 137.973C276.709 136.938 276.324 135.635 276.489 134.342V131.234C276.415 130.679 276.46 130.115 276.621 129.576C276.782 129.036 277.057 128.532 277.43 128.092C277.812 127.77 278.262 127.526 278.75 127.372C279.239 127.219 279.756 127.161 280.27 127.201C280.713 127.168 281.158 127.219 281.579 127.351C281.999 127.483 282.386 127.693 282.716 127.969C283.198 128.729 283.433 129.602 283.393 130.483L281.775 130.606ZM287.419 138.514H286.065V130.728H287.419V138.462V138.514ZM285.933 127.585H287.419V128.965H285.933V127.585ZM267.233 130.728V131.636C266.989 131.638 266.75 131.696 266.536 131.806C266.323 131.916 266.142 132.073 266.01 132.264C265.684 132.844 265.547 133.499 265.615 134.15H267.233V135.127H265.465C265.405 135.817 265.542 136.509 265.86 137.135C265.996 137.313 266.182 137.454 266.397 137.543C266.612 137.632 266.849 137.666 267.083 137.641V138.619C266.686 138.639 266.289 138.583 265.916 138.454C265.544 138.325 265.205 138.125 264.919 137.868C264.245 136.948 263.957 135.83 264.11 134.726C263.996 133.68 264.137 132.624 264.524 131.636C264.801 131.284 265.173 131.006 265.602 130.832C266.032 130.657 266.504 130.591 266.97 130.641L267.233 130.728ZM258.598 138.619V137.624C258.9 137.642 259.199 137.564 259.446 137.402C259.692 137.239 259.871 137.004 259.953 136.733C260.096 135.95 260.147 135.153 260.103 134.359C260.171 133.719 260.075 133.073 259.821 132.474C259.754 132.229 259.593 132.015 259.367 131.873C259.142 131.732 258.868 131.672 258.598 131.705V130.71C259.196 130.825 259.73 131.135 260.103 131.583V127.568H261.307V138.497H260.103V137.624C260.043 137.803 259.936 137.965 259.791 138.096C259.647 138.227 259.47 138.323 259.276 138.375C259.158 138.462 259.021 138.523 258.874 138.554C258.727 138.584 258.575 138.582 258.429 138.549L258.598 138.619ZM258.598 130.71V131.636C258.315 131.618 258.032 131.682 257.789 131.82C257.547 131.957 257.356 132.161 257.244 132.404C257.044 133.181 256.955 133.979 256.98 134.778C256.983 135.46 257.071 136.14 257.244 136.803C257.347 137.051 257.536 137.259 257.781 137.395C258.027 137.532 258.315 137.587 258.598 137.554V138.619H258.203C257.849 138.635 257.495 138.575 257.169 138.445C256.843 138.315 256.553 138.118 256.322 137.868C255.776 137.362 255.645 136.367 255.645 134.848C255.594 133.763 255.734 132.679 256.059 131.636C256.322 131.007 257.131 130.641 258.354 130.641L258.598 130.71ZM246.408 138.619V137.624C246.695 137.658 246.985 137.586 247.214 137.422C247.443 137.259 247.593 137.017 247.631 136.751C247.893 135.985 247.989 135.178 247.913 134.377C247.981 133.736 247.884 133.09 247.631 132.491C247.564 132.246 247.402 132.033 247.177 131.891C246.951 131.749 246.678 131.689 246.408 131.723V130.728C247.006 130.843 247.539 131.152 247.913 131.601V127.585H249.267V138.514H247.913V137.641C247.711 137.954 247.426 138.212 247.085 138.392C246.968 138.48 246.83 138.541 246.684 138.571C246.537 138.601 246.384 138.6 246.238 138.567L246.408 138.619ZM246.408 130.71V131.636C246.124 131.618 245.841 131.682 245.599 131.82C245.356 131.957 245.165 132.161 245.053 132.404C244.847 133.18 244.752 133.979 244.771 134.778C244.698 135.463 244.788 136.154 245.034 136.803C245.185 137.292 245.58 137.554 246.389 137.554V138.619H245.994C245.639 138.635 245.286 138.575 244.96 138.445C244.634 138.315 244.344 138.118 244.113 137.868C243.447 136.99 243.159 135.913 243.304 134.848C243.287 133.779 243.472 132.716 243.849 131.705C244.113 131.077 244.921 130.71 246.144 130.71H246.408ZM237.754 138.619V137.624C238.149 137.624 238.431 137.362 238.695 136.995C239.162 136.323 239.356 135.518 239.24 134.726H237.754V133.853C238.24 133.742 238.741 133.701 239.24 133.731C239.26 133.212 239.164 132.695 238.958 132.212C238.861 131.998 238.69 131.82 238.472 131.707C238.254 131.593 238.001 131.549 237.754 131.583V130.71H237.886C238.252 130.685 238.62 130.728 238.969 130.836C239.318 130.944 239.64 131.115 239.917 131.339C240.142 131.554 240.317 131.808 240.433 132.087C240.55 132.366 240.605 132.664 240.595 132.962V136.611C240.573 137.242 240.617 137.874 240.726 138.497H239.127V137.362C238.926 137.742 238.652 138.085 238.318 138.375C238.064 138.391 237.816 138.45 237.585 138.549L237.754 138.619ZM237.754 130.71V131.636C237.34 131.758 237.077 131.758 236.794 132.02C236.606 132.276 236.513 132.583 236.531 132.893V133.015H235.045C235.026 132.697 235.076 132.378 235.192 132.078C235.308 131.778 235.489 131.503 235.722 131.269C236.317 130.889 237.034 130.71 237.754 130.763V130.71ZM237.754 133.853V134.726C237.472 134.848 237.208 134.848 236.926 134.988C236.696 135.116 236.51 135.302 236.39 135.525C236.27 135.747 236.221 135.997 236.249 136.245C236.219 136.42 236.228 136.598 236.277 136.77C236.326 136.941 236.412 137.101 236.531 137.24C236.644 137.368 236.788 137.47 236.952 137.537C237.115 137.604 237.293 137.633 237.472 137.624H237.754V138.619H237.077C236.769 138.647 236.459 138.604 236.174 138.495C235.888 138.385 235.636 138.212 235.44 137.99C235.003 137.451 234.808 136.775 234.894 136.105C234.841 135.724 234.917 135.337 235.113 134.999C235.308 134.661 235.614 134.388 235.986 134.219C236.531 133.953 237.138 133.815 237.754 133.818V133.853ZM202.932 138.619V137.624C203.346 137.624 203.609 137.362 203.891 136.995C204.341 136.317 204.526 135.516 204.418 134.726H202.932V133.853C203.419 133.751 203.919 133.71 204.418 133.731C204.435 133.213 204.345 132.698 204.155 132.212C204.051 131.998 203.876 131.822 203.656 131.709C203.435 131.595 203.181 131.551 202.932 131.583V130.71H203.063C203.43 130.685 203.798 130.728 204.147 130.836C204.496 130.944 204.818 131.115 205.095 131.339C205.328 131.548 205.509 131.801 205.626 132.082C205.743 132.362 205.793 132.662 205.772 132.962V136.611C205.748 137.243 205.798 137.875 205.923 138.497H204.418V137.362C204.227 137.748 203.951 138.093 203.609 138.375C203.346 138.497 203.214 138.497 202.932 138.619ZM213.091 133.381C213.14 132.931 212.998 132.48 212.695 132.124C212.611 131.994 212.488 131.889 212.342 131.821C212.195 131.753 212.031 131.725 211.868 131.74C211.637 131.724 211.406 131.762 211.196 131.85C210.985 131.939 210.802 132.075 210.664 132.247C210.32 132.865 210.177 133.562 210.25 134.254C210.234 135.145 210.322 136.035 210.513 136.908C210.631 137.146 210.823 137.345 211.065 137.479C211.307 137.613 211.587 137.675 211.868 137.659C212.063 137.667 212.256 137.624 212.426 137.534C212.596 137.445 212.735 137.312 212.827 137.152C212.997 136.795 213.087 136.409 213.091 136.018H214.671C214.72 136.4 214.659 136.787 214.494 137.14C214.329 137.493 214.065 137.799 213.73 138.025C213.235 138.415 212.611 138.637 211.962 138.654C211.544 138.679 211.126 138.625 210.732 138.496C210.337 138.367 209.975 138.165 209.667 137.903C208.992 136.983 208.705 135.865 208.858 134.761C208.826 133.719 209.058 132.684 209.535 131.74C209.806 131.387 210.174 131.109 210.601 130.933C211.028 130.758 211.498 130.693 211.962 130.745C213.73 130.745 214.539 131.618 214.539 133.381H213.091ZM221.763 130.867H223.118V136.873C223.096 137.417 223.14 137.962 223.249 138.497H221.763V137.624C221.513 137.937 221.187 138.19 220.81 138.363C220.434 138.536 220.019 138.624 219.6 138.619C219.108 138.695 218.605 138.587 218.199 138.318C217.793 138.05 217.519 137.643 217.436 137.187C217.398 136.997 217.398 136.802 217.436 136.611V130.728H218.791V135.965C218.783 136.357 218.873 136.746 219.054 137.1C219.27 137.362 219.589 137.534 219.941 137.58C220.293 137.625 220.65 137.541 220.935 137.344C221.032 137.272 221.121 137.19 221.199 137.1C221.404 136.929 221.561 136.714 221.656 136.473C221.751 136.233 221.781 135.975 221.744 135.721V130.833L221.763 130.867ZM227.313 138.532H225.958V127.463H227.313V138.497V138.532ZM230.154 130.867V129.366L231.508 128.86V130.867H233.276V131.88H231.602V136.524C231.602 136.908 231.602 137.152 231.753 137.275C232.048 137.519 232.429 137.655 232.825 137.659L233.371 137.537V138.532H232.825C232.611 138.616 232.38 138.657 232.148 138.654C230.925 138.654 230.266 138.165 230.266 137.275V131.74H228.912V130.728L230.154 130.867ZM192.528 138.532V127.463H198.341V128.72H193.977V132.212H198.172V133.381H193.977V138.409L192.528 138.532ZM202.951 130.745V131.636C202.555 131.758 202.273 131.758 202.01 132.02C201.824 132.278 201.726 132.582 201.728 132.893V133.015H200.241C200.221 132.374 200.463 131.75 200.919 131.269C201.517 130.896 202.232 130.718 202.951 130.763V130.745ZM202.951 133.888V134.761C202.687 134.883 202.405 134.883 202.142 135.023C201.792 135.289 201.559 135.663 201.483 136.077C201.407 136.491 201.494 136.916 201.728 137.275C201.845 137.402 201.993 137.504 202.159 137.57C202.326 137.637 202.506 137.667 202.687 137.659H202.951V138.619H202.273C201.969 138.644 201.662 138.6 201.381 138.49C201.099 138.381 200.85 138.209 200.655 137.99C200.434 137.725 200.272 137.422 200.179 137.098C200.085 136.775 200.062 136.437 200.11 136.105C200.056 135.724 200.132 135.337 200.328 134.999C200.524 134.661 200.829 134.388 201.201 134.219C201.678 133.958 202.211 133.797 202.762 133.748L202.951 133.888Z" fill="#1D1D1B"></path><path d="M520 113.13H192.209V116.15H520V113.13Z" fill="#1D1D1B"></path><path d="M458.633 102.69V99.6869C459.724 99.7467 460.805 99.4712 461.71 98.9031C462.614 98.335 463.292 97.506 463.638 96.5444C464.724 93.4608 465.183 90.2167 464.992 86.9773C465.175 83.7439 464.716 80.507 463.638 77.4276C463.292 76.466 462.614 75.637 461.71 75.0689C460.805 74.5008 459.724 74.2253 458.633 74.2851V71.4045C460.248 71.3416 461.85 71.6949 463.261 72.4252C464.672 73.1556 465.838 74.2344 466.629 75.5421C468.548 79.0798 469.437 83.0221 469.206 86.9773C469.453 90.9503 468.564 94.9134 466.629 98.4648C465.846 99.7874 464.685 100.884 463.275 101.636C461.865 102.387 460.259 102.764 458.633 102.725V102.69ZM493.098 101.433C493.103 101.511 493.092 101.589 493.064 101.663C493.037 101.737 492.994 101.805 492.938 101.863C492.882 101.921 492.814 101.969 492.738 102.003C492.663 102.037 492.58 102.057 492.496 102.061H489.844C489.696 102.037 489.558 101.98 489.44 101.894C489.322 101.809 489.228 101.699 489.166 101.572L478.199 79.9416C477.579 78.7096 477.166 77.3965 476.976 76.0484H476.844C476.976 76.9213 477.107 77.5498 477.258 78.1783V101.433C477.258 101.817 477.107 102.061 476.712 102.061H474.286C473.891 102.061 473.74 101.817 473.74 101.433V72.5218C473.74 72.1552 473.891 72.033 474.286 72.033H477.54C477.678 72.0323 477.814 72.066 477.933 72.1305C478.052 72.1949 478.15 72.2879 478.217 72.3996L488.64 92.7734C488.906 93.2871 489.09 93.8341 489.185 94.3971C489.415 94.9651 489.598 95.5488 489.731 96.1429H489.862C489.811 95.718 489.723 95.2977 489.599 94.8859C489.499 94.3911 489.454 93.8878 489.467 93.3845V72.4345C489.467 72.0679 489.599 71.9457 489.994 71.9457H492.44C492.854 71.9457 493.117 72.0679 493.117 72.4345L493.098 101.433ZM458.633 71.4045V74.2851C457.515 74.2433 456.412 74.5341 455.485 75.1151C454.558 75.6962 453.855 76.537 453.479 77.5149C452.411 80.5543 451.952 83.7495 452.124 86.9424C451.933 90.1817 452.393 93.4258 453.479 96.5095C453.828 97.4975 454.528 98.3464 455.464 98.9173C456.4 99.4881 457.518 99.7472 458.633 99.652V102.655C456.993 102.724 455.365 102.368 453.93 101.628C452.495 100.889 451.31 99.7933 450.506 98.4648C448.597 94.9056 447.715 90.9474 447.948 86.9773C447.699 83.0209 448.589 79.0743 450.525 75.5421C451.336 74.2233 452.525 73.1387 453.959 72.4084C455.394 71.678 457.018 71.3306 458.652 71.4045H458.633ZM398.433 93.0178V89.9976H402.365L399.524 80.3257C399.242 79.3131 399.11 78.5798 398.847 77.8117C398.747 77.257 398.609 76.7089 398.433 76.1706V72.033H399.919C400.06 72.0157 400.203 72.0423 400.325 72.1087C400.448 72.1751 400.543 72.2774 400.596 72.3996L410.003 101.066L410.285 101.817C410.285 101.939 410.134 102.061 409.608 102.061H406.748C406.221 102.061 405.939 101.817 405.939 101.572L403.23 93.0178H398.433ZM430.414 98.6743C430.697 98.9188 430.828 99.0584 430.828 99.3028C430.828 99.5473 430.019 100.438 428.383 101.311C426.835 102.189 425.061 102.666 423.247 102.69C421.541 102.766 419.847 102.393 418.359 101.615C416.871 100.836 415.651 99.6841 414.838 98.2903C412.955 94.6956 412.05 90.7272 412.204 86.7329C412.02 82.8731 412.86 79.0304 414.65 75.5421C415.429 74.1981 416.612 73.0923 418.054 72.3582C419.496 71.624 421.136 71.2927 422.777 71.4045C424.589 71.3535 426.38 71.7901 427.931 72.6615C429.549 73.5344 430.358 74.2851 430.358 74.7914C430.321 74.979 430.23 75.1539 430.095 75.2977L429.135 76.5547C428.872 76.7991 428.74 76.9213 428.609 76.9213C427.737 76.1924 426.777 75.5597 425.749 75.0358C424.887 74.5635 423.909 74.305 422.908 74.2851C421.844 74.2134 420.782 74.4548 419.873 74.975C418.965 75.4953 418.256 76.2679 417.848 77.1832C416.77 80.0878 416.309 83.1591 416.493 86.2266C416.332 89.6039 416.881 92.9781 418.111 96.1603C418.434 97.1654 419.097 98.0474 420.001 98.6762C420.906 99.3049 422.004 99.647 423.134 99.652C424.498 99.6017 425.811 99.1628 426.897 98.395C427.574 98.0109 428.251 97.5046 428.928 97.138C429.034 97.1491 429.133 97.192 429.21 97.2602L429.342 97.3824L430.283 98.6394L430.414 98.6743ZM446.405 101.433C446.405 101.817 446.274 102.061 445.86 102.061H433.406C433.322 102.066 433.237 102.055 433.158 102.03C433.078 102.004 433.005 101.964 432.942 101.912C432.879 101.86 432.828 101.798 432.791 101.727C432.755 101.657 432.733 101.581 432.728 101.503V99.7568C432.728 99.3727 432.992 99.2505 433.406 99.2505H437.601V74.8088H433.406C432.992 74.8088 432.728 74.6866 432.728 74.3026V72.5567C432.728 72.1901 432.992 72.0679 433.406 72.0679H445.86C446.274 72.0679 446.405 72.1901 446.405 72.5567V74.3026C446.405 74.6866 446.274 74.8088 445.86 74.8088H441.533V99.2505H445.86C446.274 99.2505 446.405 99.3727 446.405 99.7568V101.433ZM398.358 72.033V76.1706C398.316 76.5967 398.227 77.0178 398.094 77.4276C398.094 77.5498 397.812 78.5624 397.267 80.3257L394.426 89.9976H398.358V93.0178H393.485L391.171 101.572C391.087 101.734 390.952 101.867 390.784 101.954C390.616 102.042 390.423 102.079 390.231 102.061H387.39C387.108 102.061 386.976 101.939 386.844 101.939V101.066L396.251 72.3996C396.333 72.2726 396.453 72.1704 396.597 72.1053C396.74 72.0402 396.901 72.0151 397.06 72.033H398.358ZM386.844 72.9059L387.108 72.2774C387.108 72.2126 387.08 72.1504 387.031 72.1046C386.981 72.0587 386.914 72.033 386.844 72.033V72.9059ZM386.844 72.033V72.9059L386.167 74.547C386.036 74.9136 385.904 75.0358 385.49 75.0358H378.849V101.433C378.854 101.511 378.843 101.589 378.815 101.663C378.788 101.737 378.745 101.805 378.689 101.863C378.633 101.921 378.565 101.969 378.489 102.003C378.413 102.037 378.331 102.057 378.247 102.061H375.463C375.068 102.061 374.917 101.817 374.917 101.433V75.0358H367.881C367.467 75.0358 367.336 74.9136 367.336 74.547V72.5218C367.336 72.1552 367.467 72.033 368.013 72.033H386.826H386.844ZM386.844 101.188L386.713 101.817C386.713 101.849 386.727 101.88 386.751 101.903C386.776 101.926 386.81 101.939 386.844 101.939V101.188ZM331.573 89.2469V86.1044C332.712 86.0232 333.8 85.628 334.696 84.9696C335.372 84.3294 335.882 83.5553 336.188 82.7055C336.494 81.8557 336.589 80.9524 336.464 80.0638C336.464 77.9339 335.919 76.5547 334.828 75.9262C333.821 75.4231 332.713 75.1198 331.573 75.0358V72.033C333.658 71.9871 335.718 72.4635 337.537 73.4122C339.418 74.2851 340.246 76.5547 340.246 79.9416C340.381 81.2771 340.197 82.6239 339.706 83.8856C339.215 85.1472 338.429 86.2924 337.405 87.2392C335.727 88.4447 333.692 89.1452 331.573 89.2469ZM364.232 93.8908C364.292 95.0676 364.094 96.2436 363.651 97.3477C363.208 98.4519 362.529 99.4614 361.654 100.315C359.475 101.981 356.703 102.828 353.885 102.69C352.531 102.809 351.166 102.671 349.872 102.284C348.578 101.897 347.383 101.268 346.36 100.438C345.501 99.5543 344.843 98.519 344.426 97.394C344.009 96.269 343.841 95.0774 343.933 93.8908V72.5218C343.933 72.1552 344.196 72.033 344.61 72.033H347.319C347.714 72.033 347.846 72.1552 347.846 72.5218V93.8908C347.717 95.4224 348.199 96.9445 349.2 98.1681C349.801 98.7207 350.525 99.1435 351.322 99.4061C352.119 99.6686 352.968 99.7645 353.809 99.6869C358.155 99.6869 360.319 97.8014 360.319 93.8908V72.5218C360.319 72.1552 360.45 72.033 360.864 72.033H363.573C363.968 72.033 364.25 72.1552 364.25 72.5218L364.232 93.8908ZM331.573 72.033V75.0358H326.7V86.244H329.823C330.41 86.2641 330.996 86.2231 331.573 86.1218V89.2643C331.086 89.3659 330.586 89.407 330.087 89.3865H326.7V101.433C326.711 101.506 326.706 101.581 326.685 101.652C326.664 101.724 326.628 101.791 326.579 101.849C326.53 101.908 326.469 101.957 326.399 101.993C326.33 102.029 326.253 102.053 326.174 102.061H323.314C323.153 102.044 323.005 101.968 322.903 101.85C322.801 101.733 322.753 101.583 322.769 101.433V72.5218C322.763 72.4622 322.771 72.4022 322.791 72.3453C322.811 72.2884 322.843 72.2357 322.885 72.1902C322.927 72.1448 322.978 72.1075 323.036 72.0805C323.093 72.0535 323.156 72.0374 323.22 72.033H331.573ZM277.261 102.69V99.6869C278.371 99.7625 279.476 99.4952 280.405 98.9268C281.334 98.3584 282.034 97.5208 282.397 96.5444C283.466 93.4572 283.925 90.216 283.751 86.9773C283.915 83.7733 283.456 80.568 282.397 77.5149C282.031 76.5372 281.327 75.699 280.395 75.1307C279.463 74.5624 278.354 74.2958 277.242 74.3724V71.4045C278.878 71.3205 280.507 71.6636 281.943 72.3949C283.38 73.1263 284.566 74.2165 285.369 75.5421C287.326 79.07 288.248 83.014 288.04 86.9773C288.273 90.9572 287.357 94.9226 285.388 98.4648C284.595 99.8063 283.414 100.916 281.978 101.668C280.542 102.421 278.908 102.787 277.261 102.725V102.69ZM316.542 101.433C316.542 101.817 316.41 102.061 315.996 102.061H313.287C312.892 102.061 312.76 101.817 312.76 101.433L311.933 78.9465V76.1706C311.89 77.1935 311.713 78.2078 311.406 79.1909L305.574 94.5193C305.536 94.643 305.458 94.7529 305.35 94.8341C305.242 94.9153 305.11 94.9638 304.972 94.9732H303.617C303.439 94.9955 303.258 94.9562 303.109 94.8629C302.96 94.7696 302.853 94.6286 302.808 94.4669L297.315 79.2607C296.937 78.2932 296.752 77.2696 296.77 76.2404H296.638V78.8766L295.961 101.572C295.961 101.956 295.829 102.201 295.415 102.201H292.706C292.292 102.201 292.16 101.956 292.16 101.572L293.929 72.6615C293.929 72.2948 294.061 72.1726 294.474 72.1726H297.579C297.64 72.1791 297.7 72.197 297.755 72.2251C297.809 72.2533 297.857 72.2912 297.896 72.3367C297.934 72.3822 297.963 72.4343 297.979 72.4901C297.996 72.5458 298 72.6041 297.992 72.6615L303.636 87.6232C303.709 87.8683 303.754 88.12 303.768 88.3739C303.98 89.0341 304.118 89.7127 304.182 90.3991C304.403 89.9057 304.585 89.3981 304.727 88.8802C304.859 88.1295 304.991 87.7454 304.991 87.6232L310.634 72.5218C310.785 72.1552 310.917 72.033 311.18 72.033H314.378C314.442 72.0257 314.508 72.0303 314.57 72.0466C314.632 72.0629 314.691 72.0905 314.741 72.1279C314.792 72.1652 314.834 72.2116 314.866 72.2642C314.897 72.3169 314.917 72.3747 314.924 72.4345L316.542 101.433ZM201.277 98.6743C202.106 98.485 202.887 98.1434 203.572 97.6696C204.257 97.1959 204.832 96.5996 205.265 95.9159C206.504 92.9119 207.055 89.7011 206.883 86.4884C206.883 81.9493 206.206 78.9465 204.851 77.4276C203.962 76.3783 202.726 75.6298 201.333 75.2977V72.1552C203.741 72.4012 206.011 73.3206 207.842 74.7914C210.137 76.6769 211.229 80.6923 211.229 86.7329C211.229 91.9704 210.137 95.9159 208.106 98.4299C206.377 100.297 203.964 101.504 201.333 101.817V98.6743H201.277ZM277.261 71.4045V74.2851C276.163 74.2486 275.081 74.5436 274.179 75.126C273.276 75.7083 272.602 76.5466 272.257 77.5149C271.189 80.5543 270.73 83.7495 270.902 86.9424C270.701 90.1821 271.16 93.4281 272.257 96.5095C272.585 97.4811 273.259 98.3208 274.168 98.8915C275.076 99.4622 276.167 99.7303 277.261 99.652V102.655C275.641 102.744 274.027 102.406 272.606 101.68C271.184 100.954 270.013 99.8698 269.228 98.5521C267.309 94.9647 266.427 90.9761 266.669 86.9773C266.427 83.0233 267.31 79.0798 269.228 75.5421C270.009 74.2263 271.172 73.1407 272.586 72.4091C274 71.6775 275.607 71.3294 277.223 71.4045H277.261ZM232.016 101.433C232.022 101.511 232.01 101.589 231.982 101.663C231.955 101.737 231.912 101.805 231.856 101.863C231.8 101.921 231.732 101.969 231.657 102.003C231.581 102.037 231.499 102.057 231.414 102.061H216.722C216.643 102.055 216.566 102.034 216.495 101.999C216.425 101.965 216.363 101.918 216.312 101.861C216.261 101.804 216.223 101.739 216.2 101.668C216.176 101.598 216.168 101.524 216.176 101.45V72.5218C216.171 72.4622 216.179 72.4022 216.199 72.3453C216.219 72.2884 216.25 72.2357 216.292 72.1902C216.334 72.1448 216.386 72.1075 216.443 72.0805C216.501 72.0535 216.563 72.0374 216.628 72.033H231.885L232.167 72.2774L231.885 72.7837L231.339 74.6692C231.257 74.7962 231.137 74.8984 230.993 74.9635C230.85 75.0285 230.689 75.0536 230.53 75.0358H220.108V84.7252H229.307C229.391 84.7204 229.476 84.7311 229.555 84.7567C229.635 84.7822 229.708 84.8221 229.771 84.874C229.834 84.9259 229.885 84.9888 229.922 85.0592C229.959 85.1295 229.98 85.2058 229.985 85.2838V87.2392C229.99 87.3171 229.978 87.3953 229.951 87.4691C229.923 87.5429 229.88 87.611 229.824 87.6694C229.768 87.7278 229.701 87.7753 229.625 87.8094C229.549 87.8434 229.467 87.8632 229.383 87.8677H220.108V98.9188H231.49C231.554 98.914 231.619 98.9211 231.68 98.9396C231.741 98.9581 231.798 98.9877 231.847 99.0266C231.896 99.0655 231.936 99.1131 231.965 99.1665C231.994 99.2199 232.012 99.2781 232.016 99.3378V101.433ZM264.807 98.6743C264.949 98.8607 265.039 99.0765 265.07 99.3028C265.07 99.6869 264.261 100.438 262.643 101.311C261.138 102.19 259.4 102.668 257.62 102.69C255.932 102.782 254.251 102.415 252.784 101.633C251.317 100.852 250.128 99.6898 249.362 98.2903C247.426 94.7139 246.537 90.7284 246.784 86.7329C246.623 82.8875 247.415 79.059 249.098 75.5421C249.895 74.1839 251.099 73.0698 252.566 72.3352C254.032 71.6006 255.697 71.2773 257.357 71.4045C259.118 71.3858 260.851 71.8209 262.361 72.6615C263.847 73.5344 264.675 74.2851 264.675 74.7914C264.684 74.8918 264.662 74.9924 264.612 75.0818C264.562 75.1712 264.486 75.246 264.393 75.2977L263.452 76.5547C263.396 76.6493 263.318 76.7312 263.224 76.7946C263.13 76.858 263.021 76.9013 262.907 76.9213C262.098 76.1706 261.138 75.6643 260.329 75.0358C259.413 74.5805 258.396 74.3238 257.357 74.2851C256.293 74.2187 255.234 74.4623 254.327 74.9819C253.419 75.5015 252.71 76.2711 252.296 77.1832C251.241 80.0983 250.794 83.1735 250.98 86.244C250.813 89.6231 251.37 92.9992 252.616 96.1778C252.942 97.2017 253.621 98.0979 254.549 98.7288C255.477 99.3596 256.602 99.6901 257.752 99.6695C259.085 99.6104 260.366 99.1715 261.421 98.4125C262.02 97.9584 262.648 97.5387 263.302 97.1555C263.434 97.1555 263.434 97.1555 263.565 97.2777L263.697 97.3999L264.807 98.6743ZM198.699 98.9188C199.565 98.9161 200.428 98.8342 201.277 98.6743V101.817C200.155 101.968 199.024 102.049 197.89 102.061H192.472C192.058 102.061 191.927 101.817 191.927 101.433V72.5218C191.927 72.1552 192.058 72.033 192.472 72.033H198.436C199.385 72.0127 200.334 72.0535 201.277 72.1552V75.2977C200.296 75.1319 199.301 75.0442 198.304 75.0358H195.727V98.9188H198.699Z" fill="#1D1D1B"></path></g><defs><clipPath id="clip0_744_1390"><rect width="520" height="179" fill="white"></rect></clipPath></defs></svg> 